<svg width="315" height="510" viewBox="0 0 315 510" fill="none" xmlns="http://www.w3.org/2000/svg">
<g clip-path="url(#clip0_107_530)">
<path d="M159.056 510C221.214 510 271.603 499.57 271.603 486.704C271.603 473.838 221.214 463.409 159.056 463.409C96.8985 463.409 46.5098 473.838 46.5098 486.704C46.5098 499.57 96.8985 510 159.056 510Z" fill="#B8B8B8" fill-opacity="0.980392"/>
<path d="M187.174 380.195C173.282 380.196 160.92 374.863 156.395 394.178C151.456 375.99 139.48 382.357 126.162 382.357C108.182 382.356 93.6067 403.788 93.6064 430.226C93.606 456.665 108.182 478.098 126.162 478.098C140.055 478.097 147.943 467.073 157.189 450.992C167.596 464.328 173.856 475.934 187.174 475.934C205.154 475.935 219.729 454.503 219.73 428.065C219.729 401.627 205.154 380.195 187.174 380.195Z" fill="#E5570B"/>
<path d="M117.098 404.946C117.098 404.946 127.981 358.704 120.369 351.848C110.096 342.592 91.7259 355.212 68.2058 381.345C44.6849 407.478 47.8593 425.346 58.1346 434.601C66.0743 441.752 86.0672 434.601 86.0672 434.601C86.0672 434.601 116.705 413.828 117.098 404.946Z" fill="#FE7605"/>
<path d="M189.865 404.946C189.865 404.946 178.982 358.704 186.593 351.848C196.867 342.592 215.237 355.212 238.757 381.345C262.278 407.478 259.104 425.346 248.828 434.601C240.889 441.752 220.896 434.601 220.896 434.601C220.896 434.601 190.258 413.828 189.865 404.946Z" fill="#FE7605"/>
<path d="M219.785 362.942C219.785 414.704 168.764 417.579 152.236 417.579C138.048 417.579 83.2525 416.86 83.2519 362.942L152.236 362.943C152.236 362.943 219.979 363.888 219.785 362.942Z" fill="#FE7605"/>
<path d="M293.677 258.5C288.104 302.5 248.949 347.589 231.139 348.5C209.164 349.624 204.25 322.377 203.623 280C203.31 258.812 223.135 195.5 229.138 171.5C235.142 147.5 247.648 133.5 247.649 114C247.649 85.3834 277.693 132.997 288.173 165.5C298.654 198.002 299.249 214.5 293.677 258.5Z" fill="#39A3FF"/>
<path d="M124.571 25.3895C119.473 -5.37041 144.746 4.02699 172.605 28.828C191.222 45.4017 210.995 68.8549 223.629 91.7987C239.144 119.972 233.049 147.565 236.143 170.785C236.19 171.142 236.235 171.499 236.282 171.855C241.671 171.031 245.699 171.072 246.346 169.164C252.878 149.872 261.728 158.816 270.34 186.376C280.799 219.848 279.934 277.429 265.158 309.685C255.155 331.521 241.645 366 159.596 367.5C77.5475 369 32.0206 325.632 32.0205 240.716C32.0206 198.258 42.5141 175.824 77.5436 130.034C117.57 77.7119 131.812 69.0847 124.571 25.3895Z" fill="#FE7605"/>
<path d="M148.419 75.3417C150.337 74.4779 152.53 75.3072 154.982 77.2186C157.487 79.171 160.589 82.4998 164.512 87.3827C172.37 97.1646 183.704 113.415 200.407 138.032C208.319 149.693 210.728 167.213 211.804 180.473C212.349 187.19 212.546 192.721 212.924 196.119C213.017 196.956 213.118 197.628 213.23 198.13C213.232 198.135 213.234 198.141 213.235 198.146C213.252 198.116 213.271 198.085 213.288 198.053C216.877 191.32 220.279 186.806 223.522 184.183C226.795 181.538 229.988 180.764 233.011 181.714C235.957 182.64 238.522 185.14 240.753 188.526C242.996 191.932 244.985 196.359 246.733 201.349C253.718 221.281 257.105 250.908 257.105 263.065C257.105 286.304 249.572 309.736 233.009 327.274C216.431 344.828 190.896 356.386 155.083 356.019C96.8132 355.422 58.0364 305.557 58.0361 259.015C58.0362 235.785 62.2956 199.296 104.407 159.376C110.914 153.207 117.387 146.986 122.793 140.755C128.204 134.517 132.493 128.329 134.686 122.242C138.838 110.715 140.742 99.829 142.311 91.4432C143.091 87.2712 143.797 83.6702 144.666 80.954C145.101 79.5936 145.591 78.4082 146.18 77.4647C146.768 76.5213 147.493 75.7591 148.419 75.3417Z" fill="#FFD700"/>
<path d="M114.919 317.863C95.4694 317.863 79.702 298.547 79.702 274.718C79.702 250.89 95.4694 231.573 114.919 231.573C134.369 231.573 150.137 250.89 150.137 274.718C150.137 298.547 134.369 317.863 114.919 317.863Z" fill="white"/>
<path d="M121.175 303.315C109.571 303.315 100.164 291.812 100.164 277.623C100.164 263.434 109.571 251.931 121.175 251.931C132.779 251.931 142.187 263.434 142.187 277.623C142.187 291.812 132.779 303.315 121.175 303.315Z" fill="#222831"/>
<path d="M209.86 318.642C229.31 318.642 245.077 299.325 245.077 275.497C245.077 251.669 229.31 232.352 209.86 232.352C190.41 232.352 174.643 251.669 174.643 275.497C174.643 299.325 190.41 318.642 209.86 318.642Z" fill="white"/>
<path d="M203.913 304.094C215.517 304.094 224.924 292.591 224.924 278.402C224.924 264.213 215.517 252.71 203.913 252.71C192.309 252.71 182.901 264.213 182.901 278.402C182.901 292.591 192.309 304.094 203.913 304.094Z" fill="#222831"/>
<path d="M150.74 335.486C154.83 331.969 156.022 330.615 160.703 330.616C165.383 330.617 167.647 331.583 171.009 335.213C173.595 338.007 177.06 336.984 177.063 333.845C177.067 330.705 175.747 328.663 172.683 326.603C169.618 324.544 165.383 323.268 160.703 323.265C156.022 323.261 151.783 324.53 148.711 326.585C145.64 328.64 144.532 330.708 144.547 333.845C144.57 336.981 147.898 337.93 150.74 335.486Z" fill="#222831"/>
</g>
<defs>
<clipPath id="clip0_107_530">
<rect width="314.187" height="510" fill="white"/>
</clipPath>
</defs>
</svg>
