<svg width="268" height="504" viewBox="0 0 268 504" fill="none" xmlns="http://www.w3.org/2000/svg">
<g clip-path="url(#clip0_231_380)">
<path d="M125.056 504C187.214 504 237.603 493.57 237.603 480.704C237.603 467.838 187.214 457.409 125.056 457.409C62.8985 457.409 12.5098 467.838 12.5098 480.704C12.5098 493.57 62.8985 504 125.056 504Z" fill="#B8B8B8" fill-opacity="0.980392"/>
<path d="M153.174 374.196C139.282 374.196 126.92 368.863 122.395 388.178C117.456 369.99 105.48 376.357 92.1616 376.357C74.1822 376.357 59.6067 397.788 59.6064 424.227C59.606 450.665 74.1817 472.098 92.1616 472.098C106.055 472.097 113.943 461.073 123.189 444.992C133.596 458.328 139.856 469.935 153.174 469.934C171.154 469.935 185.729 448.503 185.73 422.065C185.729 395.627 171.154 374.195 153.174 374.196Z" fill="#E5570B"/>
<path d="M83.0976 398.946C83.0976 398.946 93.9807 352.704 86.3694 345.848C76.0955 336.592 57.7259 349.212 34.2058 375.345C10.6849 401.479 13.8593 419.346 24.1346 428.601C32.0743 435.752 52.0672 428.601 52.0672 428.601C52.0672 428.601 82.7047 407.829 83.0976 398.946Z" fill="#FE7605"/>
<path d="M155.865 398.946C155.865 398.946 144.982 352.704 152.593 345.848C162.867 336.592 181.237 349.212 204.757 375.345C228.278 401.479 225.104 419.346 214.828 428.601C206.889 435.752 186.896 428.601 186.896 428.601C186.896 428.601 156.258 407.829 155.865 398.946Z" fill="#FE7605"/>
<path d="M187.785 356.942C187.785 408.704 136.764 411.579 120.236 411.579C106.048 411.579 51.2525 410.86 51.2519 356.942L120.236 356.943C120.236 356.943 187.979 357.888 187.785 356.942Z" fill="#FE7605"/>
<path d="M261.677 252.5C256.104 296.5 216.949 341.589 199.139 342.5C177.164 343.624 172.25 316.377 171.623 274C171.31 252.812 191.135 189.5 197.138 165.5C203.142 141.5 215.648 127.5 215.649 108C215.649 79.3834 245.693 126.997 256.173 159.5C266.654 192.002 267.249 208.5 261.677 252.5Z" fill="#39A3FF"/>
<path d="M92.5706 19.3895C87.4731 -11.3704 112.746 -1.97301 140.605 22.828C159.222 39.4017 178.995 62.8549 191.629 85.7987C207.144 113.972 201.049 141.565 204.143 164.785C204.19 165.142 204.235 165.499 204.282 165.855C209.671 165.031 213.699 165.072 214.346 163.164C220.879 143.872 229.728 152.816 238.34 180.376C248.799 213.848 247.934 271.429 233.158 303.685C223.155 325.521 209.645 360 127.596 361.5C45.5475 363 0.0206307 319.632 0.0205078 234.716C0.020553 192.258 10.5141 169.824 45.5436 124.034C85.5701 71.7119 99.8116 63.0847 92.5706 19.3895Z" fill="#FE7605"/>
<path d="M116.419 69.3409C118.337 68.4772 120.53 69.3065 122.982 71.2178C125.487 73.1702 128.589 76.4989 132.512 81.3819C140.37 91.1637 151.703 107.414 168.407 132.031C176.319 143.692 178.728 161.212 179.804 174.472C180.349 181.189 180.546 186.72 180.924 190.118C181.017 190.955 181.118 191.627 181.23 192.129C181.232 192.134 181.234 192.14 181.235 192.146C181.252 192.115 181.271 192.084 181.288 192.052C184.877 185.319 188.279 180.805 191.522 178.183C194.795 175.537 197.988 174.763 201.011 175.713C203.957 176.639 206.522 179.139 208.753 182.525C210.997 185.931 212.985 190.358 214.733 195.348C221.718 215.28 225.105 244.907 225.105 257.064C225.105 280.303 217.571 303.735 201.009 321.273C184.431 338.827 158.896 350.385 123.083 350.019C64.8131 349.421 26.0363 299.556 26.0361 253.014C26.0362 229.784 30.2958 193.295 72.4072 153.375C78.9143 147.207 85.3869 140.985 90.793 134.754C96.2042 128.517 100.493 122.328 102.686 116.241C106.838 104.714 108.742 93.8281 110.311 85.4424C111.091 81.2706 111.797 77.6693 112.666 74.9532C113.101 73.5929 113.591 72.4073 114.18 71.4639C114.768 70.5206 115.493 69.7582 116.419 69.3409Z" fill="#FFD700"/>
<path d="M137.827 298.368C128.432 298.368 131.88 298.371 124.819 298.368C117.758 298.365 119.081 298.368 110.366 298.368C104.585 298.367 100.254 299.546 100.249 307.622C100.244 315.698 103.174 318.997 107.797 324.294C112.42 329.591 118.81 332.872 125.871 332.881C132.932 332.889 139.328 329.625 143.961 324.339C148.595 319.054 150.857 315.338 150.834 307.27C150.8 299.203 143.432 298.368 137.827 298.368Z" fill="#222831"/>
<path d="M180.518 269.645C173.819 261.69 171.866 258.625 164.2 258.628C156.534 258.631 152.824 260.817 147.319 269.028C143.082 275.346 136.387 271.315 136.382 264.213C136.376 257.111 139.557 254.21 144.577 249.552C149.596 244.893 156.534 242.008 164.2 242C171.866 241.992 178.81 244.863 183.841 249.511C188.871 254.16 191.328 257.428 191.303 264.522C191.266 271.617 185.174 275.173 180.518 269.645Z" fill="#222831"/>
<path d="M98.1365 269.645C91.4376 261.69 89.4842 258.625 81.818 258.628C74.1518 258.631 70.4426 260.817 64.937 269.028C60.7004 275.346 54.0056 271.315 54 264.213C53.9943 257.111 57.1756 254.21 62.1951 249.552C67.2145 244.893 74.1519 242.008 81.818 242C89.4842 241.992 96.4285 244.863 101.459 249.511C106.489 254.16 108.946 257.428 108.921 264.522C108.884 271.617 102.792 275.173 98.1365 269.645Z" fill="#222831"/>
</g>
<defs>
<clipPath id="clip0_231_380">
<rect width="267.123" height="504" fill="white"/>
</clipPath>
</defs>
</svg>
