<svg width="315" height="510" viewBox="0 0 315 510" fill="none" xmlns="http://www.w3.org/2000/svg">
<g clip-path="url(#clip0_107_379)">
<path d="M159.056 510C221.214 510 271.603 499.57 271.603 486.704C271.603 473.838 221.214 463.409 159.056 463.409C96.8985 463.409 46.5098 473.838 46.5098 486.704C46.5098 499.57 96.8985 510 159.056 510Z" fill="#B8B8B8" fill-opacity="0.980392"/>
<path d="M187.175 380.195C173.283 380.196 160.921 374.863 156.396 394.178C151.457 375.99 139.481 382.357 126.163 382.357C108.183 382.356 93.6077 403.788 93.6074 430.226C93.607 456.665 108.183 478.098 126.163 478.098C140.056 478.097 147.944 467.073 157.19 450.992C167.597 464.328 173.856 475.934 187.175 475.934C205.155 475.935 219.73 454.503 219.73 428.065C219.73 401.627 205.155 380.195 187.175 380.195Z" fill="#E5570B"/>
<path d="M117.099 404.946C117.099 404.946 127.982 358.704 120.37 351.848C110.097 342.592 91.7269 355.212 68.2068 381.345C44.6859 407.478 47.8603 425.346 58.1356 434.601C66.0752 441.752 86.0682 434.601 86.0682 434.601C86.0682 434.601 116.706 413.828 117.099 404.946Z" fill="#FE7605"/>
<path d="M189.865 404.946C189.865 404.946 178.982 358.704 186.593 351.848C196.867 342.592 215.237 355.212 238.757 381.345C262.278 407.478 259.104 425.346 248.828 434.601C240.889 441.752 220.896 434.601 220.896 434.601C220.896 434.601 190.258 413.828 189.865 404.946Z" fill="#FE7605"/>
<path d="M221.785 362.942C221.785 414.704 170.764 417.579 154.236 417.579C140.048 417.579 85.2525 416.86 85.2519 362.942L154.236 362.943C154.236 362.943 221.979 363.888 221.785 362.942Z" fill="#FE7605"/>
<path d="M295.677 258.5C290.104 302.5 250.949 347.589 233.139 348.5C211.164 349.624 206.25 322.377 205.623 280C205.31 258.812 225.135 195.5 231.138 171.5C237.142 147.5 249.648 133.5 249.649 114C249.649 85.3834 279.693 132.997 290.173 165.5C300.654 198.002 301.249 214.5 295.677 258.5Z" fill="#39A3FF"/>
<path d="M126.571 25.3895C121.473 -5.37041 146.746 4.02699 174.605 28.828C193.222 45.4017 212.995 68.8549 225.629 91.7987C241.144 119.972 235.049 147.565 238.143 170.785C238.19 171.142 238.235 171.499 238.282 171.855C243.671 171.031 247.699 171.072 248.346 169.164C254.878 149.872 263.728 158.816 272.34 186.376C282.799 219.848 281.934 277.429 267.158 309.685C257.155 331.521 243.645 366 161.596 367.5C79.5475 369 34.0206 325.632 34.0205 240.716C34.0206 198.258 44.5141 175.824 79.5436 130.034C119.57 77.7119 133.812 69.0847 126.571 25.3895Z" fill="#FE7605"/>
<path d="M150.419 75.3411C152.337 74.4775 154.53 75.3067 156.982 77.2181C159.487 79.1705 162.589 82.4992 166.512 87.3821C174.37 97.164 185.703 113.414 202.407 138.032C210.319 149.693 212.728 167.212 213.804 180.472C214.349 187.189 214.546 192.72 214.924 196.118C215.017 196.956 215.118 197.627 215.23 198.129C215.232 198.135 215.234 198.14 215.235 198.146C215.252 198.116 215.271 198.084 215.288 198.052C218.877 191.319 222.279 186.805 225.522 184.183C228.795 181.537 231.988 180.763 235.011 181.713C237.957 182.639 240.522 185.14 242.753 188.526C244.997 191.931 246.985 196.358 248.733 201.348C255.718 221.281 259.105 250.907 259.105 263.065C259.105 286.303 251.572 309.735 235.009 327.274C218.431 344.827 192.896 356.386 157.083 356.019C98.8131 355.422 60.0363 305.556 60.0361 259.014C60.0362 235.785 64.2957 199.296 106.407 159.375C112.914 153.207 119.387 146.986 124.793 140.754C130.204 134.517 134.493 128.328 136.686 122.242C140.838 110.714 142.742 99.8284 144.311 91.4427C145.091 87.2707 145.797 83.6696 146.666 80.9534C147.101 79.5931 147.591 78.4076 148.18 77.4642C148.768 76.5208 149.493 75.7585 150.419 75.3411Z" fill="#FFD700"/>
<path d="M114.919 317.863C95.4694 317.863 79.702 298.547 79.702 274.718C79.702 250.89 95.4694 231.573 114.919 231.573C134.369 231.573 150.137 250.89 150.137 274.718C150.137 298.547 134.369 317.863 114.919 317.863Z" fill="white"/>
<path d="M121.175 303.315C109.571 303.315 100.164 291.812 100.164 277.623C100.164 263.434 109.571 251.931 121.175 251.931C132.779 251.931 142.187 263.434 142.187 277.623C142.187 291.812 132.779 303.315 121.175 303.315Z" fill="#222831"/>
<path d="M209.86 318.642C229.31 318.642 245.077 299.325 245.077 275.497C245.077 251.669 229.31 232.352 209.86 232.352C190.41 232.352 174.643 251.669 174.643 275.497C174.643 299.325 190.41 318.642 209.86 318.642Z" fill="white"/>
<path d="M203.913 304.094C215.517 304.094 224.924 292.591 224.924 278.402C224.924 264.213 215.517 252.71 203.913 252.71C192.309 252.71 182.901 264.213 182.901 278.402C182.901 292.591 192.309 304.094 203.913 304.094Z" fill="#222831"/>
<path d="M150.74 324.648C154.83 328.165 156.022 329.519 160.703 329.518C165.383 329.517 167.647 328.551 171.009 324.921C173.595 322.127 177.06 323.15 177.063 326.289C177.067 329.429 175.747 331.471 172.683 333.531C169.618 335.59 165.383 336.866 160.703 336.869C156.022 336.873 151.783 335.604 148.711 333.549C145.64 331.494 144.532 329.426 144.547 326.289C144.57 323.153 147.898 322.204 150.74 324.648Z" fill="#222831"/>
</g>
<defs>
<clipPath id="clip0_107_379">
<rect width="314.187" height="510" fill="white"/>
</clipPath>
</defs>
</svg>
