<svg width="202" height="329" viewBox="0 0 202 329" fill="none" xmlns="http://www.w3.org/2000/svg">
<g clip-path="url(#clip0_107_517)">
<path d="M103.311 329.172C159.815 329.172 205.621 322.443 205.621 314.144C205.621 305.844 159.815 299.116 103.311 299.116C46.806 299.116 1 305.844 1 314.144C1 322.443 46.806 329.172 103.311 329.172Z" fill="#B8B8B8" fill-opacity="0.980392"/>
<path d="M128.873 245.435C116.243 245.435 105.006 241.995 100.893 254.455C96.4027 242.722 85.5163 246.829 73.4088 246.83C57.0646 246.829 43.8147 260.655 43.8145 277.71C43.814 294.766 57.0641 308.592 73.4088 308.592C86.0384 308.591 93.2096 301.48 101.615 291.106C111.075 299.709 116.765 307.196 128.873 307.196C145.217 307.197 158.467 293.371 158.467 276.316C158.467 259.261 145.217 245.435 128.873 245.435Z" fill="#222831"/>
<path d="M201.102 172.669C201.102 230.268 159.654 263.699 101 264.438C28.6255 265.35 0.897456 221.502 0.897461 163.903C0.897463 135.103 14.4079 108.033 33.941 89.1713C60.8607 63.1766 74.5439 45.2178 74.3327 23.1265C73.8636 -25.9406 130.004 15.8033 160.276 56.6972C190.548 97.5912 201.102 143.87 201.102 172.669Z" fill="#FE7605"/>
<path d="M176.228 182.74C176.228 217.744 146.05 243.291 102.461 243.74C48.6755 244.294 28.0693 217.647 28.0693 182.643C28.0693 165.141 40.6466 141.048 55.1627 129.585C75.1682 113.788 81.8237 110.494 82.6429 97.0912C85.6217 48.3601 132.948 83.8361 159.744 127.234C173.351 149.269 176.228 165.238 176.228 182.74Z" fill="#FFD700"/>
<path d="M138.026 217.698C152.725 217.698 164.641 203.05 164.641 184.982C164.641 166.913 152.725 152.266 138.026 152.266C123.327 152.266 111.411 166.913 111.411 184.982C111.411 203.05 123.327 217.698 138.026 217.698Z" fill="white"/>
<path d="M129.277 206.666C138.046 206.666 145.156 197.944 145.156 187.185C145.156 176.425 138.046 167.703 129.277 167.703C120.507 167.703 113.397 176.425 113.397 187.185C113.397 197.944 120.507 206.666 129.277 206.666Z" fill="#222831"/>
<path d="M66.2766 218.288C51.5776 218.288 39.6616 203.641 39.6616 185.572C39.6616 167.504 51.5776 152.856 66.2766 152.856C80.9757 152.856 92.8916 167.504 92.8916 185.572C92.8916 203.641 80.9757 218.288 66.2766 218.288Z" fill="white"/>
<path d="M74.7948 207.257C66.025 207.257 58.9157 198.534 58.9157 187.775C58.9157 177.015 66.025 168.293 74.7948 168.293C83.5645 168.293 90.6738 177.015 90.6738 187.775C90.6738 198.534 83.5645 207.257 74.7948 207.257Z" fill="#222831"/>
<path d="M110.948 223.799C107.862 226.127 106.963 227.023 103.431 227.022C99.8999 227.022 98.1913 226.382 95.6552 223.98C93.7037 222.131 90.6198 223.31 90.6172 225.388C90.6146 227.466 92.08 228.315 94.3922 229.678C96.7043 231.041 99.8999 231.885 103.431 231.888C106.963 231.89 110.161 231.05 112.479 229.69C114.796 228.33 115.928 227.374 115.916 225.298C115.899 223.222 113.093 222.181 110.948 223.799Z" fill="#222831"/>
</g>
<defs>
<clipPath id="clip0_107_517">
<rect width="202" height="329" fill="white"/>
</clipPath>
</defs>
</svg>
