<svg width="206" height="330" viewBox="0 0 206 330" fill="none" xmlns="http://www.w3.org/2000/svg">
<g clip-path="url(#clip0_107_442)">
<path d="M103.311 329.172C159.815 329.172 205.621 322.443 205.621 314.144C205.621 305.844 159.815 299.116 103.311 299.116C46.806 299.116 1 305.844 1 314.144C1 322.443 46.806 329.172 103.311 329.172Z" fill="#B8B8B8" fill-opacity="0.980392"/>
<path d="M128.872 245.435C116.243 245.435 105.005 241.995 100.892 254.455C96.4022 242.722 85.5158 246.829 73.4084 246.83C57.0641 246.829 43.8142 260.655 43.814 277.71C43.8135 294.766 57.0636 308.592 73.4084 308.592C86.0379 308.591 93.2091 301.48 101.614 291.106C111.074 299.709 116.765 307.196 128.872 307.196C145.216 307.197 158.466 293.371 158.467 276.316C158.466 259.261 145.216 245.435 128.872 245.435Z" fill="#E5570B"/>
<path d="M201.102 172.669C201.102 230.268 159.654 263.699 101 264.438C28.626 265.35 0.897944 221.502 0.897949 163.903C0.897952 135.103 14.4084 108.033 33.9415 89.1713C60.8612 63.1766 74.5444 45.2178 74.3332 23.1265C73.8641 -25.9406 130.004 15.8033 160.276 56.6972C190.548 97.5912 201.102 143.87 201.102 172.669Z" fill="#FE7605"/>
<path d="M176.228 182.739C176.228 217.743 146.05 243.291 102.461 243.74C48.676 244.294 28.0698 217.647 28.0698 182.643C28.0698 165.141 40.6471 141.048 55.1632 129.585C75.1687 113.788 81.8242 110.494 82.6434 97.091C85.6222 48.3599 132.949 83.8358 159.745 127.233C173.351 149.269 176.228 165.238 176.228 182.739Z" fill="#FFD700"/>
<path d="M138.026 217.698C152.725 217.698 164.641 203.05 164.641 184.982C164.641 166.913 152.725 152.266 138.026 152.266C123.327 152.266 111.411 166.913 111.411 184.982C111.411 203.05 123.327 217.698 138.026 217.698Z" fill="white"/>
<path d="M129.276 206.667C138.046 206.667 145.155 197.944 145.155 187.185C145.155 176.425 138.046 167.703 129.276 167.703C120.506 167.703 113.397 176.425 113.397 187.185C113.397 197.944 120.506 206.667 129.276 206.667Z" fill="#222831"/>
<path d="M66.2756 218.288C51.5766 218.288 39.6607 203.641 39.6607 185.572C39.6607 167.504 51.5766 152.856 66.2756 152.856C80.9747 152.856 92.8906 167.504 92.8906 185.572C92.8906 203.641 80.9747 218.288 66.2756 218.288Z" fill="white"/>
<path d="M74.7948 207.256C66.025 207.256 58.9157 198.534 58.9157 187.775C58.9157 177.015 66.025 168.293 74.7948 168.293C83.5645 168.293 90.6738 177.015 90.6738 187.775C90.6738 198.534 83.5645 207.256 74.7948 207.256Z" fill="#222831"/>
<path d="M110.947 231.096C107.861 228.768 106.962 227.872 103.43 227.872C99.899 227.873 98.1903 228.513 95.6542 230.915C93.7027 232.764 90.6188 231.585 90.6162 229.507C90.6136 227.429 92.079 226.58 94.3912 225.217C96.7033 223.854 99.899 223.009 103.43 223.007C106.962 223.005 110.16 223.845 112.478 225.205C114.795 226.565 115.927 227.521 115.915 229.597C115.898 231.673 113.092 232.713 110.947 231.096Z" fill="#222831"/>
</g>
<defs>
<clipPath id="clip0_107_442">
<rect width="206" height="330" fill="white"/>
</clipPath>
</defs>
</svg>
