<svg width="206" height="330" viewBox="0 0 206 330" fill="none" xmlns="http://www.w3.org/2000/svg">
<g clip-path="url(#clip0_231_367)">
<path d="M103.311 329.172C159.815 329.172 205.621 322.443 205.621 314.144C205.621 305.844 159.815 299.116 103.311 299.116C46.806 299.116 1 305.844 1 314.144C1 322.443 46.806 329.172 103.311 329.172Z" fill="#B8B8B8" fill-opacity="0.980392"/>
<path d="M128.872 245.435C116.243 245.435 105.005 241.995 100.892 254.455C96.4022 242.722 85.5158 246.829 73.4084 246.83C57.0641 246.829 43.8142 260.655 43.814 277.71C43.8135 294.766 57.0636 308.592 73.4084 308.592C86.0379 308.591 93.2091 301.48 101.614 291.106C111.074 299.709 116.765 307.196 128.872 307.196C145.216 307.197 158.466 293.371 158.467 276.316C158.466 259.261 145.216 245.435 128.872 245.435Z" fill="#E5570B"/>
<path d="M201.102 172.669C201.102 230.268 159.654 263.699 101 264.438C28.626 265.349 0.897944 221.501 0.897949 163.903C0.897952 135.103 14.4084 108.033 33.9415 89.171C60.8612 63.1763 74.5444 45.2175 74.3332 23.1263C73.864 -25.9409 130.004 15.803 160.276 56.697C190.548 97.5909 201.102 143.87 201.102 172.669Z" fill="#FE7605"/>
<path d="M176.228 182.739C176.228 217.743 146.05 243.291 102.461 243.74C48.676 244.294 28.0698 217.647 28.0698 182.643C28.0698 165.141 40.6471 141.048 55.1632 129.585C75.1687 113.788 81.8242 110.494 82.6434 97.091C85.6222 48.3599 132.949 83.8358 159.745 127.233C173.351 149.269 176.228 165.238 176.228 182.739Z" fill="#FFD700"/>
<path d="M113 210.001C106.5 210.001 108.885 210.003 104 210.001C99.1145 209.999 100.03 210.001 94 210.001C90 210 87.0036 210.816 87 216.404C86.9964 221.991 89.0238 224.274 92.2225 227.939C95.4213 231.604 99.8424 233.874 104.728 233.88C109.613 233.887 114.039 231.628 117.245 227.971C120.45 224.314 122.016 221.742 122 216.161C121.977 210.579 116.879 210.001 113 210.001Z" fill="#222831"/>
<path d="M142.538 190.128C137.903 184.623 136.552 182.503 131.247 182.505C125.943 182.507 123.377 184.019 119.567 189.7C116.636 194.072 112.004 191.283 112 186.369C111.996 181.455 114.197 179.448 117.67 176.225C121.143 173.002 125.943 171.005 131.247 171C136.552 170.995 141.356 172.981 144.837 176.197C148.318 179.413 150.017 181.674 150 186.583C149.975 191.492 145.759 193.953 142.538 190.128Z" fill="#222831"/>
<path d="M85.5382 190.128C80.9032 184.623 79.5516 182.503 74.2474 182.505C68.9431 182.507 66.3767 184.019 62.5673 189.7C59.636 194.072 55.0039 191.283 55 186.369C54.996 181.455 57.1972 179.448 60.6702 176.225C64.1431 173.002 68.9431 171.005 74.2474 171C79.5516 170.995 84.3564 172.981 87.837 176.197C91.3177 179.413 93.0175 181.674 92.9999 186.583C92.9747 191.492 88.7592 193.953 85.5382 190.128Z" fill="#222831"/>
</g>
<defs>
<clipPath id="clip0_231_367">
<rect width="206" height="330" fill="white"/>
</clipPath>
</defs>
</svg>
