<svg width="210" height="379" viewBox="0 0 210 379" fill="none" xmlns="http://www.w3.org/2000/svg">
<path d="M107.549 379C156.613 379 196.387 370.758 196.387 360.592C196.387 350.425 156.613 342.184 107.549 342.184C58.4858 342.184 18.7119 350.425 18.7119 360.592C18.7119 370.758 58.4858 379 107.549 379Z" fill="#B8B8B8" fill-opacity="0.980392"/>
<path d="M129.745 276.429C118.779 276.429 109.021 272.215 105.449 287.478C101.551 273.106 92.0979 278.137 81.5848 278.137C67.3929 278.137 55.8879 295.072 55.8877 315.963C55.8873 336.855 67.3925 353.791 81.5848 353.791C92.5511 353.791 98.778 345.079 106.076 332.372C114.29 342.91 119.231 352.082 129.745 352.082C143.936 352.082 155.441 335.147 155.442 314.255C155.441 293.364 143.936 276.429 129.745 276.429Z" fill="#E5570B"/>
<path d="M74.4302 295.987C74.4302 295.987 83.0207 259.446 77.0128 254.029C68.9032 246.715 54.4033 256.687 35.8379 277.337C17.272 297.988 19.7777 312.107 27.8883 319.42C34.1554 325.071 49.9367 319.42 49.9367 319.42C49.9367 319.42 74.1201 303.006 74.4302 295.987Z" fill="#FE7605"/>
<path d="M131.868 295.987C131.868 295.987 123.278 259.446 129.286 254.029C137.395 246.715 151.895 256.687 170.46 277.337C189.026 297.988 186.521 312.107 178.41 319.42C172.143 325.071 156.362 319.42 156.362 319.42C156.362 319.42 132.178 303.006 131.868 295.987Z" fill="#FE7605"/>
<path d="M157.064 262.794C157.064 303.695 116.791 305.967 103.745 305.967C92.5457 305.967 49.2935 305.399 49.2931 262.794L103.745 262.794C103.745 262.794 157.217 263.54 157.064 262.794Z" fill="#FE7605"/>
<path d="M77.4082 24.1019C76.918 -27.0937 135.586 16.4614 167.221 59.1293C198.856 101.797 209.885 150.083 209.885 180.131C209.885 240.229 166.571 275.11 105.275 275.881C29.6426 276.833 0.666011 231.082 0.666016 170.985C0.666085 143.197 12.7409 116.952 30.7012 97.5961C38.2682 82.645 41.4982 72.1914 39.0107 60.8978C34.5075 40.451 50.4417 45.6794 66.3154 57.9759C73.7921 46.6733 77.5217 35.9583 77.4082 24.1019Z" fill="#FE7605"/>
<path d="M184.219 190.619C184.219 227.033 152.693 253.609 107.157 254.077C50.9698 254.653 29.4434 226.932 29.4434 190.519C29.4434 172.312 43.4671 135.802 61.6664 123.564C76.8886 113.328 81.1894 99.4181 85.8219 89.4951C106.338 42.1957 139.006 87.7319 166.999 132.877C181.213 155.801 184.219 172.412 184.219 190.619Z" fill="#FFD700"/>
<path d="M116 220.001C109.5 220.001 111.885 220.003 107 220.001C102.114 219.999 103.03 220.001 97 220.001C93 220 90.0036 220.816 90 226.404C89.9964 231.991 92.0238 234.274 95.2225 237.939C98.4213 241.604 102.842 243.874 107.728 243.88C112.613 243.887 117.039 241.628 120.245 237.971C123.45 234.314 125.016 231.742 125 226.161C124.977 220.579 119.879 220.001 116 220.001Z" fill="#222831"/>
<path d="M145.538 200.128C140.903 194.623 139.552 192.503 134.247 192.505C128.943 192.507 126.377 194.019 122.567 199.7C119.636 204.072 115.004 201.283 115 196.369C114.996 191.455 117.197 189.448 120.67 186.225C124.143 183.002 128.943 181.005 134.247 181C139.552 180.995 144.356 182.981 147.837 186.197C151.318 189.413 153.017 191.674 153 196.583C152.975 201.492 148.759 203.953 145.538 200.128Z" fill="#222831"/>
<path d="M88.5382 200.128C83.9032 194.623 82.5516 192.503 77.2474 192.505C71.9431 192.507 69.3767 194.019 65.5673 199.7C62.636 204.072 58.0039 201.283 58 196.369C57.996 191.455 60.1972 189.448 63.6702 186.225C67.1431 183.002 71.9431 181.005 77.2474 181C82.5516 180.995 87.3564 182.981 90.837 186.197C94.3177 189.413 96.0175 191.674 95.9999 196.583C95.9747 201.492 91.7592 203.953 88.5382 200.128Z" fill="#222831"/>
</svg>
