<svg width="248" height="403" viewBox="0 0 248 403" fill="none" xmlns="http://www.w3.org/2000/svg">
<g clip-path="url(#clip0_107_474)">
<path d="M125.549 403C174.613 403 214.387 394.759 214.387 384.592C214.387 374.425 174.613 366.184 125.549 366.184C76.4858 366.184 36.7119 374.425 36.7119 384.592C36.7119 394.759 76.4858 403 125.549 403Z" fill="#B8B8B8" fill-opacity="0.980392"/>
<path d="M147.745 300.429C136.779 300.429 127.021 296.215 123.449 311.478C119.551 297.106 110.098 302.137 99.5848 302.137C85.3929 302.137 73.8879 319.072 73.8877 339.963C73.8873 360.855 85.3925 377.791 99.5848 377.791C110.551 377.791 116.778 369.079 124.076 356.372C132.29 366.91 137.231 376.082 147.745 376.082C161.936 376.082 173.441 359.147 173.442 338.255C173.441 317.364 161.936 300.429 147.745 300.429Z" fill="#222831"/>
<path d="M92.4297 319.987C92.4297 319.987 101.02 283.446 95.0123 278.029C86.9027 270.715 72.4028 280.687 53.8375 301.337C35.2715 321.988 37.7772 336.107 45.8879 343.42C52.155 349.071 67.9362 343.42 67.9362 343.42C67.9362 343.42 92.1196 327.006 92.4297 319.987Z" fill="#FE7605"/>
<path d="M149.868 319.987C149.868 319.987 141.278 283.446 147.286 278.029C155.395 270.715 169.895 280.687 188.46 301.337C207.026 321.988 204.521 336.107 196.41 343.42C190.143 349.071 174.362 343.42 174.362 343.42C174.362 343.42 150.178 327.006 149.868 319.987Z" fill="#FE7605"/>
<path d="M175.063 286.794C175.063 327.695 134.791 329.968 121.745 329.968C110.545 329.968 67.293 329.4 67.2926 286.794L121.745 286.794C121.745 286.794 175.217 287.541 175.063 286.794Z" fill="#FE7605"/>
<path d="M95.4082 48.1022C94.918 -3.09343 153.586 40.4616 185.221 83.1295C216.856 125.797 227.885 174.083 227.885 204.131C227.885 264.229 184.571 299.11 123.275 299.881C47.6426 300.833 18.666 255.082 18.666 194.985C18.6661 167.197 30.7409 140.952 48.7012 121.596C56.2682 106.645 59.4982 96.1917 57.0107 84.8981C52.5075 64.4513 68.4417 69.6796 84.3154 81.9762C91.7921 70.6735 95.5217 59.9585 95.4082 48.1022Z" fill="#FE7605"/>
<path d="M202.219 214.619C202.219 251.033 170.693 277.609 125.157 278.077C68.9698 278.653 47.4434 250.932 47.4434 214.519C47.4434 196.312 61.4671 159.802 79.6664 147.564C94.8886 137.328 99.1894 123.418 103.822 113.495C124.338 66.1957 157.006 111.732 184.999 156.877C199.213 179.801 202.219 196.412 202.219 214.619Z" fill="#FFD700"/>
<path d="M162.216 251.174C177.569 251.174 190.015 235.91 190.015 217.081C190.015 198.252 177.569 182.988 162.216 182.988C146.864 182.988 134.418 198.252 134.418 217.081C134.418 235.91 146.864 251.174 162.216 251.174Z" fill="white"/>
<path d="M155.724 239.678C164.884 239.678 172.309 230.589 172.309 219.377C172.309 208.165 164.884 199.075 155.724 199.075C146.564 199.075 139.139 208.165 139.139 219.377C139.139 230.589 146.564 239.678 155.724 239.678Z" fill="#222831"/>
<path d="M87.2767 251.79C71.9241 251.79 59.4783 236.526 59.4783 217.697C59.4783 198.868 71.9241 183.604 87.2767 183.604C102.629 183.604 115.075 198.868 115.075 217.697C115.075 236.526 102.629 251.79 87.2767 251.79Z" fill="white"/>
<path d="M93.5262 240.294C84.3664 240.294 76.941 231.204 76.941 219.992C76.941 208.78 84.3664 199.69 93.5262 199.69C102.686 199.69 110.111 208.78 110.111 219.992C110.111 231.204 102.686 240.294 93.5262 240.294Z" fill="#222831"/>
<path d="M133.943 265.247C130.714 262.468 129.773 261.398 126.079 261.399C122.384 261.4 120.597 262.164 117.943 265.032C115.902 267.239 112.676 265.831 112.673 263.35C112.67 260.869 114.203 259.855 116.622 258.228C119.041 256.601 122.384 255.593 126.079 255.59C129.773 255.587 133.119 256.59 135.544 258.214C137.968 259.838 139.152 260.979 139.14 263.458C139.122 265.936 136.186 267.179 133.943 265.247Z" fill="#222831"/>
</g>
<defs>
<clipPath id="clip0_107_474">
<rect width="248" height="403" fill="white"/>
</clipPath>
</defs>
</svg>
