<svg width="210" height="379" viewBox="0 0 210 379" fill="none" xmlns="http://www.w3.org/2000/svg">
<g clip-path="url(#clip0_96_777)">
<path d="M107.549 379C156.613 379 196.387 370.758 196.387 360.592C196.387 350.425 156.613 342.184 107.549 342.184C58.4858 342.184 18.7119 350.425 18.7119 360.592C18.7119 370.758 58.4858 379 107.549 379Z" fill="#B8B8B8" fill-opacity="0.980392"/>
<path d="M129.745 276.429C118.779 276.429 109.021 272.215 105.449 287.478C101.551 273.106 92.0979 278.137 81.5848 278.137C67.3929 278.137 55.8879 295.072 55.8877 315.963C55.8873 336.855 67.3925 353.791 81.5848 353.791C92.5511 353.791 98.778 345.079 106.076 332.372C114.29 342.91 119.231 352.082 129.745 352.082C143.936 352.082 155.441 335.147 155.442 314.255C155.441 293.364 143.936 276.429 129.745 276.429Z" fill="#E5570B"/>
<path d="M74.4302 295.987C74.4302 295.987 83.0207 259.446 77.0128 254.029C68.9032 246.715 54.4033 256.687 35.8379 277.337C17.272 297.988 19.7777 312.107 27.8883 319.42C34.1554 325.071 49.9367 319.42 49.9367 319.42C49.9367 319.42 74.1201 303.006 74.4302 295.987Z" fill="#FE7605"/>
<path d="M131.868 295.987C131.868 295.987 123.278 259.446 129.286 254.029C137.395 246.715 151.895 256.687 170.46 277.337C189.026 297.988 186.521 312.107 178.41 319.42C172.143 325.071 156.362 319.42 156.362 319.42C156.362 319.42 132.178 303.006 131.868 295.987Z" fill="#FE7605"/>
<path d="M157.064 262.794C157.064 303.695 116.791 305.967 103.745 305.967C92.5457 305.967 49.2935 305.399 49.2931 262.794L103.745 262.794C103.745 262.794 157.217 263.54 157.064 262.794Z" fill="#FE7605"/>
<path d="M77.4082 24.1019C76.918 -27.0937 135.586 16.4614 167.221 59.1293C198.856 101.797 209.885 150.083 209.885 180.131C209.885 240.229 166.571 275.11 105.275 275.881C29.6426 276.833 0.666011 231.082 0.666016 170.985C0.666085 143.197 12.7409 116.952 30.7012 97.5961C38.2682 82.645 41.4982 72.1914 39.0107 60.8978C34.5075 40.451 50.4417 45.6794 66.3154 57.9759C73.7921 46.6733 77.5217 35.9583 77.4082 24.1019Z" fill="#FE7605"/>
<path d="M184.219 190.619C184.219 227.033 152.693 253.609 107.157 254.077C50.9698 254.653 29.4434 226.932 29.4434 190.519C29.4434 172.312 43.4671 135.802 61.6664 123.564C76.8886 113.328 81.1894 99.4181 85.8219 89.4951C106.338 42.1957 139.006 87.7319 166.999 132.877C181.213 155.801 184.219 172.412 184.219 190.619Z" fill="#FFD700"/>
<path d="M144.217 227.174C159.57 227.174 172.015 211.91 172.015 193.081C172.015 174.252 159.57 158.988 144.217 158.988C128.864 158.988 116.418 174.252 116.418 193.081C116.418 211.91 128.864 227.174 144.217 227.174Z" fill="white"/>
<path d="M137.724 215.678C146.884 215.678 154.309 206.589 154.309 195.377C154.309 184.165 146.884 175.075 137.724 175.075C128.564 175.075 121.139 184.165 121.139 195.377C121.139 206.589 128.564 215.678 137.724 215.678Z" fill="#222831"/>
<path d="M69.2772 227.79C53.9245 227.79 41.4787 212.526 41.4787 193.697C41.4787 174.868 53.9245 159.604 69.2772 159.604C84.6299 159.604 97.0757 174.868 97.0757 193.697C97.0757 212.526 84.6299 227.79 69.2772 227.79Z" fill="white"/>
<path d="M75.5267 216.294C66.3669 216.294 58.9415 207.204 58.9415 195.992C58.9415 184.78 66.3669 175.69 75.5267 175.69C84.6864 175.69 92.1118 184.78 92.1118 195.992C92.1118 207.204 84.6864 216.294 75.5267 216.294Z" fill="#222831"/>
<path d="M115.943 232.535C112.715 235.314 111.773 236.385 108.079 236.384C104.385 236.383 102.597 235.619 99.944 232.751C97.9023 230.544 94.6761 231.952 94.6733 234.433C94.6706 236.914 96.2037 237.927 98.6226 239.555C101.042 241.182 104.385 242.19 108.079 242.193C111.773 242.195 115.12 241.193 117.544 239.569C119.968 237.945 121.152 236.803 121.14 234.325C121.123 231.846 118.187 230.604 115.943 232.535Z" fill="#222831"/>
</g>
<defs>
<clipPath id="clip0_96_777">
<rect width="210" height="379" fill="white"/>
</clipPath>
</defs>
</svg>
