<svg width="248" height="403" viewBox="0 0 248 403" fill="none" xmlns="http://www.w3.org/2000/svg">
<g clip-path="url(#clip0_107_323)">
<path d="M125.549 403C174.613 403 214.387 394.759 214.387 384.592C214.387 374.425 174.613 366.184 125.549 366.184C76.4858 366.184 36.7119 374.425 36.7119 384.592C36.7119 394.759 76.4858 403 125.549 403Z" fill="#B8B8B8" fill-opacity="0.980392"/>
<path d="M147.745 300.429C136.779 300.429 127.021 296.215 123.449 311.478C119.551 297.106 110.098 302.137 99.5848 302.137C85.3929 302.137 73.8879 319.072 73.8877 339.963C73.8873 360.855 85.3925 377.791 99.5848 377.791C110.551 377.791 116.778 369.079 124.076 356.372C132.29 366.91 137.231 376.082 147.745 376.082C161.936 376.082 173.441 359.147 173.442 338.255C173.441 317.364 161.936 300.429 147.745 300.429Z" fill="#222831"/>
<path d="M92.4297 319.987C92.4297 319.987 101.02 283.446 95.0123 278.029C86.9027 270.715 72.4028 280.687 53.8375 301.337C35.2715 321.988 37.7772 336.107 45.8879 343.42C52.155 349.071 67.9362 343.42 67.9362 343.42C67.9362 343.42 92.1196 327.006 92.4297 319.987Z" fill="#FE7605"/>
<path d="M149.868 319.987C149.868 319.987 141.278 283.446 147.286 278.029C155.395 270.715 169.895 280.687 188.46 301.337C207.026 321.988 204.521 336.107 196.41 343.42C190.143 349.071 174.362 343.42 174.362 343.42C174.362 343.42 150.178 327.006 149.868 319.987Z" fill="#FE7605"/>
<path d="M175.063 286.794C175.063 327.695 134.791 329.968 121.745 329.968C110.545 329.968 67.293 329.4 67.2926 286.794L121.745 286.794C121.745 286.794 175.217 287.541 175.063 286.794Z" fill="#FE7605"/>
<path d="M95.4082 48.1022C94.918 -3.09343 153.586 40.4616 185.221 83.1295C216.856 125.797 227.885 174.083 227.885 204.131C227.885 264.229 184.571 299.11 123.275 299.881C47.6426 300.833 18.666 255.082 18.666 194.985C18.6661 167.197 30.7409 140.952 48.7012 121.596C56.2682 106.645 59.4982 96.1917 57.0107 84.8981C52.5075 64.4513 68.4417 69.6796 84.3154 81.9762C91.7921 70.6735 95.5217 59.9585 95.4082 48.1022Z" fill="#FE7605"/>
<path d="M202.219 214.619C202.219 251.033 170.693 277.609 125.157 278.077C68.9698 278.653 47.4434 250.932 47.4434 214.519C47.4434 196.312 61.4671 159.802 79.6664 147.564C94.8886 137.328 99.1894 123.418 103.822 113.495C124.338 66.1957 157.006 111.732 184.999 156.877C199.213 179.801 202.219 196.412 202.219 214.619Z" fill="#FFD700"/>
<path d="M162.217 251.174C177.57 251.174 190.016 235.91 190.016 217.081C190.016 198.252 177.57 182.988 162.217 182.988C146.865 182.988 134.419 198.252 134.419 217.081C134.419 235.91 146.865 251.174 162.217 251.174Z" fill="white"/>
<path d="M155.724 239.678C164.884 239.678 172.309 230.589 172.309 219.377C172.309 208.165 164.884 199.075 155.724 199.075C146.564 199.075 139.139 208.165 139.139 219.377C139.139 230.589 146.564 239.678 155.724 239.678Z" fill="#222831"/>
<path d="M87.2777 251.79C71.925 251.79 59.4792 236.526 59.4792 217.697C59.4792 198.868 71.925 183.604 87.2777 183.604C102.63 183.604 115.076 198.868 115.076 217.697C115.076 236.526 102.63 251.79 87.2777 251.79Z" fill="white"/>
<path d="M93.5271 240.294C84.3674 240.294 76.942 231.204 76.942 219.992C76.942 208.78 84.3674 199.69 93.5271 199.69C102.687 199.69 110.112 208.78 110.112 219.992C110.112 231.204 102.687 240.294 93.5271 240.294Z" fill="#222831"/>
<path d="M133.944 256.535C130.715 259.314 129.774 260.385 126.08 260.384C122.385 260.383 120.598 259.619 117.944 256.751C115.903 254.544 112.677 255.952 112.674 258.433C112.671 260.914 114.204 261.927 116.623 263.555C119.042 265.182 122.385 266.19 126.08 266.193C129.774 266.195 133.12 265.193 135.545 263.569C137.969 261.945 139.153 260.803 139.141 258.325C139.123 255.846 136.187 254.604 133.944 256.535Z" fill="#222831"/>
</g>
<defs>
<clipPath id="clip0_107_323">
<rect width="248" height="403" fill="white"/>
</clipPath>
</defs>
</svg>
