<svg width="196" height="247" viewBox="0 0 196 247" fill="none" xmlns="http://www.w3.org/2000/svg">
<g clip-path="url(#clip0_96_880)">
<path d="M195.882 229.811C195.882 234.303 185.569 238.612 167.209 241.789C148.849 244.966 123.947 246.752 97.9772 246.753C72.0078 246.755 47.0978 244.972 28.7245 241.798C10.3513 238.623 0.0191111 234.316 2.63865e-05 229.823C-0.0190226 225.331 10.2765 221.021 28.6227 217.842C46.969 214.662 71.8638 212.873 97.8331 212.868C123.802 212.863 148.72 214.643 167.107 217.815C185.494 220.988 195.844 225.294 195.882 229.786" fill="#B9B9B9"/>
<path d="M100.231 157.386C91.008 157.391 82.167 159.278 75.6516 162.633C69.1362 165.988 65.4798 170.535 65.4864 175.274C65.488 176.395 65.6946 177.513 66.1036 178.614C56.8474 180.673 49.2258 183.518 43.9475 186.887C38.6692 190.256 35.9057 194.038 35.9141 197.882C35.9159 198.703 36.0443 199.524 36.2989 200.341C21.0875 204.561 12.6323 210.127 12.6504 215.907C12.669 221.94 21.9129 227.724 38.3495 231.987C54.786 236.25 77.0697 238.644 100.301 238.642C123.533 238.639 145.81 236.241 162.235 231.975C178.659 227.708 187.886 221.922 187.887 215.89V215.856C187.856 210.246 179.846 204.838 165.397 200.668C165.726 199.738 165.891 198.801 165.891 197.863V197.829C165.875 193.912 162.98 190.062 157.486 186.651C151.992 183.24 144.084 180.384 134.525 178.357C134.875 177.334 135.051 176.298 135.051 175.259V175.233C135.037 170.493 131.362 165.95 124.832 162.603C118.302 159.255 109.453 157.381 100.231 157.386Z" fill="#929292"/>
<path d="M78.5065 20.6027C73.9338 33.5686 68.623 50.6072 81.3661 65.7177C102.049 90.2433 101.687 93.2317 97.3348 106.257C88.293 133.317 94.54 151.998 95.6922 140.329C97.3458 123.582 111.738 117.551 119.925 100.492C131.949 75.435 124.221 68.3275 105.178 46.1001C96.107 35.5117 85.5941 26.2573 92.1102 3.22157C95.3948 -8.39012 80.5978 14.673 78.5065 20.6027Z" fill="#EBEBEB"/>
<path d="M71.4828 200.065C71.4827 201.112 70.994 202.115 70.1238 202.855C69.2537 203.595 68.0735 204.011 66.8427 204.011C65.6119 204.011 64.4313 203.596 63.5606 202.857C62.6898 202.117 62.2001 201.114 62.1992 200.068C62.1983 199.022 62.6863 198.019 63.5558 197.278C64.4252 196.538 65.6051 196.121 66.8359 196.12C68.0666 196.119 69.2475 196.533 70.1189 197.272C70.9904 198.011 71.4809 199.013 71.4827 200.06" fill="#707170"/>
<path d="M150.814 207.279C150.814 208.761 150.229 210.183 149.186 211.231C148.144 212.279 146.73 212.868 145.256 212.869C143.781 212.869 142.367 212.281 141.324 211.234C140.281 210.186 139.694 208.765 139.693 207.283C139.692 205.801 140.277 204.38 141.318 203.331C142.36 202.282 143.773 201.692 145.248 201.69C146.722 201.688 148.137 202.275 149.18 203.322C150.224 204.369 150.812 205.789 150.814 207.271" fill="#707170"/>
<path d="M39.6875 219.736C39.6875 220.428 39.3358 221.092 38.7099 221.581C38.0839 222.07 37.2348 222.345 36.3494 222.346C35.464 222.346 34.6146 222.071 33.9882 221.582C33.3617 221.093 33.0094 220.43 33.0088 219.738C33.0081 219.046 33.3592 218.383 33.9847 217.893C34.6102 217.403 35.459 217.128 36.3445 217.127C37.2299 217.126 38.0795 217.4 38.7064 217.889C39.3333 218.377 39.6862 219.041 39.6875 219.732" fill="#707170"/>
<path d="M116.508 171.403C116.508 172.172 116.043 172.91 115.217 173.454C114.39 173.998 113.269 174.303 112.1 174.304C110.931 174.304 109.809 173.999 108.982 173.455C108.155 172.911 107.689 172.174 107.688 171.405C107.688 170.635 108.151 169.897 108.977 169.353C109.803 168.809 110.924 168.502 112.093 168.501C113.263 168.501 114.384 168.805 115.212 169.348C116.04 169.892 116.506 170.629 116.508 171.398" fill="#707170"/>
</g>
<defs>
<clipPath id="clip0_96_880">
<rect width="195.882" height="246.753" fill="white"/>
</clipPath>
</defs>
</svg>
