<svg width="254" height="274" viewBox="0 0 254 274" fill="none" xmlns="http://www.w3.org/2000/svg">
<g clip-path="url(#clip0_98_429)" filter="url(#filter0_n_98_429)">
<path d="M125.435 274.369C194.71 274.369 250.869 265.555 250.869 254.682C250.869 243.809 194.71 234.995 125.435 234.995C56.159 234.995 0 243.809 0 254.682C0 265.555 56.159 274.369 125.435 274.369Z" fill="#B9B9B9"/>
<path d="M128.674 254.313C321.064 254.313 267.462 0.388184 127.302 0.388184C0.634201 0.388184 -73.4421 254.313 128.674 254.313Z" fill="#FE7605"/>
<path d="M128.674 254.313C321.064 254.313 267.462 0.388184 127.302 0.388184C0.634201 0.388184 -73.4421 254.313 128.674 254.313Z" fill="#222831"/>
<path d="M77.5387 82.9519C116.6 103.366 144.242 46.1146 115.785 31.2425C90.0672 17.802 36.5024 61.5057 77.5387 82.9519Z" fill="#FE7605"/>
<path d="M170.944 112.157C197.755 91.4468 181.634 66.6678 162.101 81.7555C144.449 95.3907 142.776 133.914 170.944 112.157Z" fill="#E5570B"/>
<path d="M78.9349 143.301C101.623 130.934 69.0662 114.681 52.5374 123.691C37.5996 131.834 55.0996 156.294 78.9349 143.301Z" fill="#E5570B"/>
</g>
<defs>
<filter id="filter0_n_98_429" x="0" y="0" width="254" height="274" filterUnits="userSpaceOnUse" color-interpolation-filters="sRGB">
<feFlood flood-opacity="0" result="BackgroundImageFix"/>
<feBlend mode="normal" in="SourceGraphic" in2="BackgroundImageFix" result="shape"/>
<feTurbulence type="fractalNoise" baseFrequency="inf inf" stitchTiles="stitch" numOctaves="3" result="noise" seed="7973" />
<feColorMatrix in="noise" type="luminanceToAlpha" result="alphaNoise" />
<feComponentTransfer in="alphaNoise" result="coloredNoise1">
<feFuncA type="discrete" tableValues="1 1 1 1 1 1 1 1 1 1 1 1 1 1 1 1 1 1 1 1 1 1 1 1 1 1 1 1 1 1 1 1 1 1 1 1 1 1 1 1 1 1 1 1 1 1 1 1 1 1 1 0 0 0 0 0 0 0 0 0 0 0 0 0 0 0 0 0 0 0 0 0 0 0 0 0 0 0 0 0 0 0 0 0 0 0 0 0 0 0 0 0 0 0 0 0 0 0 0 0 "/>
</feComponentTransfer>
<feComposite operator="in" in2="shape" in="coloredNoise1" result="noise1Clipped" />
<feFlood flood-color="rgba(0, 0, 0, 0.25)" result="color1Flood" />
<feComposite operator="in" in2="noise1Clipped" in="color1Flood" result="color1" />
<feMerge result="effect1_noise_98_429">
<feMergeNode in="shape" />
<feMergeNode in="color1" />
</feMerge>
</filter>
<clipPath id="clip0_98_429">
<rect width="254" height="274" fill="white"/>
</clipPath>
</defs>
</svg>
