<svg width="789" height="330" viewBox="0 0 789 330" fill="none" xmlns="http://www.w3.org/2000/svg">
<path d="M428.565 172.416C428.565 241.918 401.142 240.944 367.314 240.944C333.486 240.944 306.063 241.918 306.063 172.416C306.063 146.486 305.544 135.835 307.482 123.144C337.564 107.968 339.709 105.754 367.314 105.754C397.941 105.754 401.035 109.153 427.356 123.144C428.867 136.741 428.565 151.257 428.565 172.416Z" fill="#C36724"/>
<ellipse cx="367.602" cy="124.655" rx="59.9015" ry="35.6546" fill="#AA5C27"/>
<path d="M419.873 124.655C419.873 140.551 396.424 153.436 367.498 153.436C338.572 153.436 315.123 140.551 315.123 124.655C315.123 108.759 338.572 95.8735 367.498 95.8735C396.424 95.8735 419.873 108.759 419.873 124.655Z" fill="#FEC67A"/>
<ellipse cx="367.615" cy="124.655" rx="40.4899" ry="21.1515" fill="#EA9D4A"/>
<ellipse cx="367.496" cy="124.798" rx="26.6" ry="11.4553" fill="#EA9D4A"/>
<path d="M391.787 124.655C391.787 131.664 380.829 137.346 367.312 137.346C353.795 137.346 342.837 131.664 342.837 124.655C342.837 117.646 353.795 111.964 367.312 111.964C380.829 111.964 391.787 117.646 391.787 124.655Z" fill="#FEC67A"/>
<ellipse cx="367.312" cy="124.353" rx="9.9714" ry="5.1368" fill="#EA9D4A"/>
<rect x="388.162" y="160.311" width="4.74966" height="29.6913" rx="2.37483" fill="#AA5C27"/>
<rect x="317.456" y="180.253" width="4.74966" height="29.6913" rx="2.37483" fill="#AA5C27"/>
<rect x="411.731" y="140.368" width="4.83462" height="14.5039" rx="2.41731" fill="#AA5C27"/>
<rect x="364.594" y="195.362" width="4.74966" height="29.6913" rx="2.37483" fill="#AA5C27"/>
<rect x="411.898" y="180.253" width="4.74966" height="29.6913" rx="2.37483" fill="#AA5C27"/>
<path d="M390.537 229.204C391.849 229.204 392.912 230.268 392.912 231.579V239.912C391.362 240.164 389.778 240.364 388.162 240.521V231.579C388.162 230.268 389.226 229.204 390.537 229.204Z" fill="#AA5C27"/>
<path d="M390.537 229.204C391.849 229.204 392.912 230.268 392.912 231.579V239.912C391.362 240.164 389.778 240.364 388.162 240.521V231.579C388.162 230.268 389.226 229.204 390.537 229.204Z" fill="#AA5C27"/>
<path d="M343.398 229.204C342.087 229.204 341.023 230.268 341.023 231.579V239.912C342.573 240.164 344.157 240.364 345.773 240.521V231.579C345.773 230.268 344.71 229.204 343.398 229.204Z" fill="#AA5C27"/>
<rect x="341.023" y="151.246" width="4.83462" height="23.5688" rx="2.41731" fill="#AA5C27"/>
<rect x="460" y="147" width="45" height="12.3529" fill="#222831"/>
<rect x="460" y="169.059" width="45" height="12.3529" fill="#222831"/>
<rect x="229" y="159.371" width="53" height="9.83065" fill="#222831"/>
<rect x="260.629" y="138" width="53" height="9.83065" transform="rotate(90 260.629 138)" fill="#222831"/>
<g clip-path="url(#clip0_203_509)">
<path d="M103.311 329.172C159.815 329.172 205.621 322.443 205.621 314.144C205.621 305.844 159.815 299.116 103.311 299.116C46.806 299.116 1 305.844 1 314.144C1 322.443 46.806 329.172 103.311 329.172Z" fill="#B8B8B8" fill-opacity="0.980392"/>
<path d="M128.873 245.435C116.243 245.435 105.006 241.995 100.893 254.455C96.4027 242.722 85.5163 246.829 73.4088 246.83C57.0646 246.829 43.8147 260.655 43.8145 277.71C43.814 294.766 57.0641 308.592 73.4088 308.592C86.0384 308.591 93.2096 301.48 101.615 291.106C111.075 299.709 116.765 307.196 128.873 307.196C145.217 307.197 158.467 293.371 158.467 276.316C158.467 259.261 145.217 245.435 128.873 245.435Z" fill="#222831"/>
<path d="M201.102 172.669C201.102 230.268 159.654 263.699 101 264.438C28.6255 265.349 0.897456 221.501 0.897461 163.903C0.897463 135.103 14.4079 108.033 33.941 89.171C60.8607 63.1763 74.5439 45.2175 74.3327 23.1263C73.8636 -25.9409 130.004 15.803 160.276 56.697C190.548 97.5909 201.102 143.87 201.102 172.669Z" fill="#FE7605"/>
<path d="M176.228 182.739C176.228 217.743 146.05 243.291 102.461 243.74C48.6755 244.294 28.0693 217.647 28.0693 182.643C28.0693 165.141 40.6466 141.048 55.1627 129.585C75.1682 113.788 81.8237 110.494 82.6429 97.091C85.6217 48.3599 132.948 83.8358 159.744 127.233C173.351 149.269 176.228 165.238 176.228 182.739Z" fill="#FFD700"/>
<path d="M138.026 217.698C152.725 217.698 164.641 203.05 164.641 184.982C164.641 166.913 152.725 152.266 138.026 152.266C123.327 152.266 111.411 166.913 111.411 184.982C111.411 203.05 123.327 217.698 138.026 217.698Z" fill="white"/>
<path d="M129.277 206.667C138.046 206.667 145.156 197.944 145.156 187.185C145.156 176.425 138.046 167.703 129.277 167.703C120.507 167.703 113.397 176.425 113.397 187.185C113.397 197.944 120.507 206.667 129.277 206.667Z" fill="#222831"/>
<path d="M66.2766 218.288C51.5776 218.288 39.6616 203.641 39.6616 185.572C39.6616 167.504 51.5776 152.856 66.2766 152.856C80.9757 152.856 92.8916 167.504 92.8916 185.572C92.8916 203.641 80.9757 218.288 66.2766 218.288Z" fill="white"/>
<path d="M74.7948 207.256C66.025 207.256 58.9157 198.534 58.9157 187.775C58.9157 177.015 66.025 168.293 74.7948 168.293C83.5645 168.293 90.6738 177.015 90.6738 187.775C90.6738 198.534 83.5645 207.256 74.7948 207.256Z" fill="#222831"/>
<path d="M110.948 231.096C107.862 228.768 106.963 227.872 103.431 227.872C99.8999 227.873 98.1913 228.513 95.6552 230.915C93.7037 232.764 90.6198 231.585 90.6172 229.507C90.6146 227.429 92.08 226.58 94.3922 225.217C96.7043 223.854 99.8999 223.009 103.431 223.007C106.963 223.005 110.161 223.845 112.479 225.205C114.796 226.565 115.928 227.521 115.916 229.597C115.899 231.673 113.093 232.713 110.948 231.096Z" fill="#222831"/>
</g>
<g clip-path="url(#clip1_203_509)">
<path d="M652.311 329.172C708.815 329.172 754.621 322.443 754.621 314.144C754.621 305.844 708.815 299.116 652.311 299.116C595.806 299.116 550 305.844 550 314.144C550 322.443 595.806 329.172 652.311 329.172Z" fill="#B8B8B8" fill-opacity="0.980392"/>
<path d="M677.873 245.435C665.243 245.435 654.006 241.995 649.893 254.455C645.403 242.722 634.516 246.829 622.409 246.83C606.065 246.829 592.815 260.655 592.814 277.71C592.814 294.766 606.064 308.592 622.409 308.592C635.038 308.591 642.21 301.48 650.615 291.106C660.075 299.709 665.765 307.196 677.873 307.196C694.217 307.197 707.467 293.371 707.467 276.316C707.467 259.261 694.217 245.435 677.873 245.435Z" fill="#222831"/>
<path d="M750.102 172.669C750.102 230.268 708.654 263.699 650 264.438C577.626 265.349 549.897 221.501 549.897 163.903C549.897 135.103 563.408 108.033 582.941 89.171C609.861 63.1763 623.544 45.2175 623.333 23.1263C622.864 -25.9409 679.004 15.803 709.276 56.697C739.548 97.5909 750.102 143.87 750.102 172.669Z" fill="#FE7605"/>
<path d="M725.228 182.739C725.228 217.743 695.05 243.291 651.461 243.74C597.676 244.294 577.069 217.647 577.069 182.643C577.069 165.141 589.647 141.048 604.163 129.585C624.168 113.788 630.824 110.494 631.643 97.091C634.622 48.3599 681.948 83.8358 708.744 127.233C722.351 149.269 725.228 165.238 725.228 182.739Z" fill="#FFD700"/>
<path d="M660 203.001C653.5 203.001 655.885 203.003 651 203.001C646.115 202.999 647.03 203.001 641 203.001C637 203 634.004 203.816 634 209.404C633.996 214.991 636.024 217.274 639.223 220.939C642.421 224.604 646.842 226.874 651.728 226.88C656.613 226.887 661.039 224.628 664.245 220.971C667.45 217.314 669.016 214.742 669 209.161C668.977 203.579 663.879 203.001 660 203.001Z" fill="#222831"/>
<path d="M689.538 183.128C684.903 177.623 683.552 175.503 678.247 175.505C672.943 175.507 670.377 177.019 666.567 182.7C663.636 187.072 659.004 184.283 659 179.369C658.996 174.455 661.197 172.448 664.67 169.225C668.143 166.002 672.943 164.005 678.247 164C683.552 163.995 688.356 165.981 691.837 169.197C695.318 172.413 697.017 174.674 697 179.583C696.975 184.492 692.759 186.953 689.538 183.128Z" fill="#222831"/>
<path d="M632.538 183.128C627.903 177.623 626.552 175.503 621.247 175.505C615.943 175.507 613.377 177.019 609.567 182.7C606.636 187.072 602.004 184.283 602 179.369C601.996 174.455 604.197 172.448 607.67 169.225C611.143 166.002 615.943 164.005 621.247 164C626.552 163.995 631.356 165.981 634.837 169.197C638.318 172.413 640.017 174.674 640 179.583C639.975 184.492 635.759 186.953 632.538 183.128Z" fill="#222831"/>
<path d="M558.512 62.1119C558.512 62.1119 568.252 62.1119 570.6 46.9998C573.191 62.1119 582.688 62.1119 582.688 62.1119C582.688 62.1119 573.191 62.1119 570.6 74.2C568.252 62.1119 558.512 62.1119 558.512 62.1119Z" fill="#FFD700"/>
<path d="M705.512 35.1119C705.512 35.1119 715.252 35.1119 717.6 19.9998C720.191 35.1119 729.688 35.1119 729.688 35.1119C729.688 35.1119 720.191 35.1119 717.6 47.2C715.252 35.1119 705.512 35.1119 705.512 35.1119Z" fill="#FFD700"/>
<ellipse cx="687.5" cy="201" rx="9.5" ry="5" fill="#FE7605"/>
<ellipse cx="615.5" cy="201" rx="9.5" ry="5" fill="#FE7605"/>
</g>
<path d="M519.512 128.112C519.512 128.112 529.252 128.112 531.6 113C534.191 128.112 543.688 128.112 543.688 128.112C543.688 128.112 534.191 128.112 531.6 140.2C529.252 128.112 519.512 128.112 519.512 128.112Z" fill="#FFD700"/>
<path d="M519.512 221.112C519.512 221.112 529.252 221.112 531.6 206C534.191 221.112 543.688 221.112 543.688 221.112C543.688 221.112 534.191 221.112 531.6 233.2C529.252 221.112 519.512 221.112 519.512 221.112Z" fill="#FFD700"/>
<path d="M762.512 157.112C762.512 157.112 772.252 157.112 774.6 142C777.191 157.112 786.688 157.112 786.688 157.112C786.688 157.112 777.191 157.112 774.6 169.2C772.252 157.112 762.512 157.112 762.512 157.112Z" fill="#FFD700"/>
<path d="M762.512 157.112C762.512 157.112 772.252 157.112 774.6 142C777.191 157.112 786.688 157.112 786.688 157.112C786.688 157.112 777.191 157.112 774.6 169.2C772.252 157.112 762.512 157.112 762.512 157.112Z" fill="#FFD700"/>
<path d="M748.512 94.1119C748.512 94.1119 758.252 94.1119 760.6 78.9998C763.191 94.1119 772.688 94.1119 772.688 94.1119C772.688 94.1119 763.191 94.1119 760.6 106.2C758.252 94.1119 748.512 94.1119 748.512 94.1119Z" fill="#FFD700"/>
<path d="M756.512 224.112C756.512 224.112 766.252 224.112 768.6 209C771.191 224.112 780.688 224.112 780.688 224.112C780.688 224.112 771.191 224.112 768.6 236.2C766.252 224.112 756.512 224.112 756.512 224.112Z" fill="#FFD700"/>
<defs>
<clipPath id="clip0_203_509">
<rect width="206" height="330" fill="white"/>
</clipPath>
<clipPath id="clip1_203_509">
<rect width="206" height="330" fill="white" transform="translate(549)"/>
</clipPath>
</defs>
</svg>
