<svg width="406" height="517" viewBox="0 0 406 517" fill="none" xmlns="http://www.w3.org/2000/svg">
<g clip-path="url(#clip0_151_578)">
<path d="M103.311 516.172C159.815 516.172 205.621 509.443 205.621 501.144C205.621 492.844 159.815 486.116 103.311 486.116C46.806 486.116 1 492.844 1 501.144C1 509.443 46.806 516.172 103.311 516.172Z" fill="#B8B8B8" fill-opacity="0.980392"/>
<path d="M128.873 432.435C116.243 432.435 105.006 428.995 100.893 441.455C96.4027 429.722 85.5163 433.829 73.4088 433.83C57.0646 433.829 43.8147 447.655 43.8145 464.71C43.814 481.766 57.0641 495.592 73.4088 495.592C86.0384 495.591 93.2096 488.48 101.615 478.106C111.075 486.709 116.765 494.196 128.873 494.196C145.217 494.197 158.467 480.371 158.467 463.316C158.467 446.261 145.217 432.435 128.873 432.435Z" fill="#222831"/>
<path d="M201.102 359.669C201.102 417.268 159.654 450.699 101 451.438C28.6255 452.35 0.897456 408.502 0.897461 350.903C0.897463 322.103 14.4079 295.033 33.941 276.171C60.8607 250.177 74.5439 232.218 74.3327 210.127C73.8636 161.059 130.004 202.803 160.276 243.697C190.548 284.591 201.102 330.87 201.102 359.669Z" fill="#FE7605"/>
<path d="M176.228 369.74C176.228 404.744 146.05 430.291 102.461 430.74C48.6755 431.294 28.0693 404.647 28.0693 369.643C28.0693 352.141 40.6466 328.048 55.1627 316.585C75.1682 300.788 81.8237 297.494 82.6429 284.091C85.6217 235.36 132.948 270.836 159.744 314.234C173.351 336.269 176.228 352.238 176.228 369.74Z" fill="#FFD700"/>
<path d="M138.026 404.698C152.725 404.698 164.641 390.05 164.641 371.982C164.641 353.913 152.725 339.266 138.026 339.266C123.327 339.266 111.411 353.913 111.411 371.982C111.411 390.05 123.327 404.698 138.026 404.698Z" fill="white"/>
<path d="M141.879 384.963C150.649 384.963 157.758 376.241 157.758 365.482C157.758 354.722 150.649 346 141.879 346C133.109 346 126 354.722 126 365.482C126 376.241 133.109 384.963 141.879 384.963Z" fill="#222831"/>
<path d="M66.2756 405.288C51.5766 405.288 39.6607 390.641 39.6607 372.572C39.6607 354.504 51.5766 339.856 66.2756 339.856C80.9747 339.856 92.8906 354.504 92.8906 372.572C92.8906 390.641 80.9747 405.288 66.2756 405.288Z" fill="white"/>
<path d="M74.8797 384.963C66.11 384.963 59.0006 376.241 59.0006 365.482C59.0006 354.722 66.11 346 74.8797 346C83.6495 346 90.7588 354.722 90.7588 365.482C90.7588 376.241 83.6495 384.963 74.8797 384.963Z" fill="#222831"/>
<rect x="83" y="405" width="16" height="12" rx="6" fill="#222831"/>
</g>
<path d="M208.873 201.859C218.357 201.859 226.984 209.006 226.984 218.93C226.984 228.853 218.357 236 208.873 236C199.389 236 190.762 228.853 190.762 218.93C190.762 209.006 199.389 201.859 208.873 201.859ZM260.777 6C276.111 6 290.268 10.0673 300.771 16.96C301.602 17.5052 302.412 18.0749 303.203 18.6611C306.588 18.1757 310.048 17.9219 313.548 17.9219C337.976 17.922 360.462 30.1701 368.848 48.7227C373.704 50.7013 378.172 53.193 382.12 56.124C392.803 64.054 400 75.4849 400 88.6406C400 99.4983 395.097 109.18 387.379 116.689C388.819 120.16 389.619 123.883 389.619 127.812C389.619 139.941 382.011 150.101 371.417 156.939C360.762 163.817 346.403 167.875 330.85 167.875C326.226 167.875 321.709 167.513 317.362 166.828C310.095 173.85 299.606 178.094 288.46 178.094C277.079 178.094 266.385 173.67 259.104 166.382C254.91 167.357 250.529 167.875 246.071 167.875C245.577 167.875 245.085 167.866 244.593 167.854C252.416 171.075 258.127 178.426 258.127 187.422C258.127 199.589 247.68 208.75 235.69 208.75C223.701 208.75 213.254 199.589 213.254 187.422C213.254 176.294 221.993 167.681 232.659 166.291C225.525 164.58 218.943 161.538 213.458 157.436C189.834 155.336 170 138.327 170 115.891C170 109.863 171.433 104.228 173.985 99.167C171.418 93.2967 170 86.8928 170 80.125C170 57.7132 185.524 39.2816 206.989 31.0586C210.184 25.5124 215.03 20.7357 220.783 16.96C231.286 10.0672 245.444 6.00008 260.777 6Z" fill="white" stroke="#B8B8B8" stroke-width="12"/>
<g filter="url(#filter0_d_151_578)">
<ellipse cx="284.134" cy="94.6016" rx="42.3889" ry="41.7266" fill="#FF5B5B"/>
</g>
<circle cx="284.135" cy="94.6014" r="31.7569" fill="white"/>
<circle cx="284.136" cy="94.6019" r="23.1739" fill="#FF5B5B"/>
<circle cx="284.134" cy="94.6015" r="14.591" fill="white"/>
<defs>
<filter id="filter0_d_151_578" x="241.745" y="52.875" width="84.7773" height="85.4531" filterUnits="userSpaceOnUse" color-interpolation-filters="sRGB">
<feFlood flood-opacity="0" result="BackgroundImageFix"/>
<feColorMatrix in="SourceAlpha" type="matrix" values="0 0 0 0 0 0 0 0 0 0 0 0 0 0 0 0 0 0 127 0" result="hardAlpha"/>
<feOffset dy="2"/>
<feComposite in2="hardAlpha" operator="out"/>
<feColorMatrix type="matrix" values="0 0 0 0 0.817308 0 0 0 0 0.267197 0 0 0 0 0.267197 0 0 0 1 0"/>
<feBlend mode="normal" in2="BackgroundImageFix" result="effect1_dropShadow_151_578"/>
<feBlend mode="normal" in="SourceGraphic" in2="effect1_dropShadow_151_578" result="shape"/>
</filter>
<clipPath id="clip0_151_578">
<rect width="206" height="330" fill="white" transform="translate(0 187)"/>
</clipPath>
</defs>
</svg>
