<svg width="271" height="330" viewBox="0 0 271 330" fill="none" xmlns="http://www.w3.org/2000/svg">
<g clip-path="url(#clip0_195_302)">
<path d="M134.311 329.172C190.815 329.172 236.621 322.443 236.621 314.144C236.621 305.844 190.815 299.116 134.311 299.116C77.806 299.116 32 305.844 32 314.144C32 322.443 77.806 329.172 134.311 329.172Z" fill="#B8B8B8" fill-opacity="0.980392"/>
<path d="M159.873 245.435C147.243 245.435 136.006 241.995 131.893 254.455C127.403 242.722 116.516 246.829 104.409 246.83C88.0646 246.829 74.8147 260.655 74.8145 277.71C74.814 294.766 88.0641 308.592 104.409 308.592C117.038 308.591 124.21 301.48 132.615 291.106C142.075 299.709 147.765 307.196 159.873 307.196C176.217 307.197 189.467 293.371 189.467 276.316C189.467 259.261 176.217 245.435 159.873 245.435Z" fill="#222831"/>
<path d="M232.102 172.669C232.102 230.268 190.654 263.699 132 264.438C59.6255 265.349 31.8975 221.501 31.8975 163.903C31.8975 135.103 45.4079 108.033 64.941 89.171C91.8607 63.1763 105.544 45.2175 105.333 23.1263C104.864 -25.9409 161.004 15.803 191.276 56.697C221.548 97.5909 232.102 143.87 232.102 172.669Z" fill="#FE7605"/>
<path d="M207.228 182.739C207.228 217.743 177.05 243.291 133.461 243.74C79.6755 244.294 59.0693 217.647 59.0693 182.643C59.0693 165.141 71.6466 141.048 86.1627 129.585C106.168 113.788 112.824 110.494 113.643 97.091C116.622 48.3599 163.948 83.8358 190.744 127.233C204.351 149.269 207.228 165.238 207.228 182.739Z" fill="#FFD700"/>
<path d="M142 203.001C135.5 203.001 137.885 203.003 133 203.001C128.115 202.999 129.03 203.001 123 203.001C119 203 116.004 203.816 116 209.404C115.996 214.991 118.024 217.274 121.223 220.939C124.421 224.604 128.842 226.874 133.728 226.88C138.613 226.887 143.039 224.628 146.245 220.971C149.45 217.314 151.016 214.742 151 209.161C150.977 203.579 145.879 203.001 142 203.001Z" fill="#222831"/>
<path d="M171.538 183.128C166.903 177.623 165.552 175.503 160.247 175.505C154.943 175.507 152.377 177.019 148.567 182.7C145.636 187.072 141.004 184.283 141 179.369C140.996 174.455 143.197 172.448 146.67 169.225C150.143 166.002 154.943 164.005 160.247 164C165.552 163.995 170.356 165.981 173.837 169.197C177.318 172.413 179.017 174.674 179 179.583C178.975 184.492 174.759 186.953 171.538 183.128Z" fill="#222831"/>
<path d="M114.538 183.128C109.903 177.623 108.552 175.503 103.247 175.505C97.9431 175.507 95.3767 177.019 91.5673 182.7C88.636 187.072 84.0039 184.283 84 179.369C83.996 174.455 86.1972 172.448 89.6702 169.225C93.1431 166.002 97.9431 164.005 103.247 164C108.552 163.995 113.356 165.981 116.837 169.197C120.318 172.413 122.017 174.674 122 179.583C121.975 184.492 117.759 186.953 114.538 183.128Z" fill="#222831"/>
<path d="M40.5123 62.1119C40.5123 62.1119 50.2524 62.1119 52.5998 46.9998C55.191 62.1119 64.6884 62.1119 64.6884 62.1119C64.6884 62.1119 55.191 62.1119 52.6003 74.2C50.2524 62.1119 40.5123 62.1119 40.5123 62.1119Z" fill="#FFD700"/>
<path d="M187.512 35.1119C187.512 35.1119 197.252 35.1119 199.6 19.9998C202.191 35.1119 211.688 35.1119 211.688 35.1119C211.688 35.1119 202.191 35.1119 199.6 47.2C197.252 35.1119 187.512 35.1119 187.512 35.1119Z" fill="#FFD700"/>
<ellipse cx="169.5" cy="201" rx="9.5" ry="5" fill="#FE7605"/>
<ellipse cx="97.5" cy="201" rx="9.5" ry="5" fill="#FE7605"/>
</g>
<path d="M1.51228 128.112C1.51228 128.112 11.2524 128.112 13.5998 113C16.191 128.112 25.6884 128.112 25.6884 128.112C25.6884 128.112 16.191 128.112 13.6003 140.2C11.2524 128.112 1.51228 128.112 1.51228 128.112Z" fill="#FFD700"/>
<path d="M1.51228 221.112C1.51228 221.112 11.2524 221.112 13.5998 206C16.191 221.112 25.6884 221.112 25.6884 221.112C25.6884 221.112 16.191 221.112 13.6003 233.2C11.2524 221.112 1.51228 221.112 1.51228 221.112Z" fill="#FFD700"/>
<path d="M244.512 157.112C244.512 157.112 254.252 157.112 256.6 142C259.191 157.112 268.688 157.112 268.688 157.112C268.688 157.112 259.191 157.112 256.6 169.2C254.252 157.112 244.512 157.112 244.512 157.112Z" fill="#FFD700"/>
<path d="M244.512 157.112C244.512 157.112 254.252 157.112 256.6 142C259.191 157.112 268.688 157.112 268.688 157.112C268.688 157.112 259.191 157.112 256.6 169.2C254.252 157.112 244.512 157.112 244.512 157.112Z" fill="#FFD700"/>
<path d="M230.512 94.1119C230.512 94.1119 240.252 94.1119 242.6 78.9998C245.191 94.1119 254.688 94.1119 254.688 94.1119C254.688 94.1119 245.191 94.1119 242.6 106.2C240.252 94.1119 230.512 94.1119 230.512 94.1119Z" fill="#FFD700"/>
<path d="M238.512 224.112C238.512 224.112 248.252 224.112 250.6 209C253.191 224.112 262.688 224.112 262.688 224.112C262.688 224.112 253.191 224.112 250.6 236.2C248.252 224.112 238.512 224.112 238.512 224.112Z" fill="#FFD700"/>
<defs>
<clipPath id="clip0_195_302">
<rect width="206" height="330" fill="white" transform="translate(31)"/>
</clipPath>
</defs>
</svg>
