<svg width="123" height="152" viewBox="0 0 123 152" fill="none" xmlns="http://www.w3.org/2000/svg">
<path d="M122.565 83.416C122.565 152.918 95.1417 151.944 61.3138 151.944C27.4859 151.944 0.0629239 152.918 0.0629239 83.416C0.0629239 57.4862 -0.455563 46.835 1.48249 34.144C31.5637 18.9683 33.7085 16.7544 61.3138 16.7544C91.9413 16.7544 95.0352 20.1529 121.356 34.144C122.867 47.7414 122.565 62.2565 122.565 83.416Z" fill="#C36724"/>
<ellipse cx="61.6017" cy="35.6546" rx="59.9015" ry="35.6546" fill="#AA5C27"/>
<path d="M113.873 35.655C113.873 51.5505 90.4242 64.4364 61.4982 64.4364C32.5722 64.4364 9.12305 51.5505 9.12305 35.655C9.12305 19.7594 32.5722 6.87354 61.4982 6.87354C90.4242 6.87354 113.873 19.7594 113.873 35.655Z" fill="#FEC67A"/>
<ellipse cx="61.6149" cy="35.6554" rx="40.4899" ry="21.1515" fill="#EA9D4A"/>
<ellipse cx="61.4965" cy="35.7976" rx="26.6" ry="11.4553" fill="#EA9D4A"/>
<path d="M85.7874 35.6553C85.7874 42.6643 74.8295 48.3462 61.3122 48.3462C47.7949 48.3462 36.8369 42.6643 36.8369 35.6553C36.8369 28.6463 47.7949 22.9644 61.3122 22.9644C74.8295 22.9644 85.7874 28.6463 85.7874 35.6553Z" fill="#FEC67A"/>
<ellipse cx="61.3122" cy="35.3531" rx="9.9714" ry="5.1368" fill="#EA9D4A"/>
<rect x="82.1621" y="71.3105" width="4.74966" height="29.6913" rx="2.37483" fill="#AA5C27"/>
<rect x="11.4561" y="91.2534" width="4.74966" height="29.6913" rx="2.37483" fill="#AA5C27"/>
<rect x="105.731" y="51.3677" width="4.83462" height="14.5039" rx="2.41731" fill="#AA5C27"/>
<rect x="58.5938" y="106.362" width="4.74966" height="29.6913" rx="2.37483" fill="#AA5C27"/>
<rect x="105.898" y="91.2534" width="4.74966" height="29.6913" rx="2.37483" fill="#AA5C27"/>
<path d="M84.5371 140.204C85.8487 140.204 86.9121 141.268 86.9121 142.579V150.912C85.3625 151.164 83.7783 151.364 82.1621 151.521V142.579C82.1621 141.268 83.2255 140.204 84.5371 140.204Z" fill="#AA5C27"/>
<path d="M84.5371 140.204C85.8487 140.204 86.9121 141.268 86.9121 142.579V150.912C85.3625 151.164 83.7783 151.364 82.1621 151.521V142.579C82.1621 141.268 83.2255 140.204 84.5371 140.204Z" fill="#AA5C27"/>
<path d="M37.3984 140.204C36.087 140.204 35.0234 141.268 35.0234 142.579V150.912C36.5731 151.164 38.1573 151.364 39.7734 151.521V142.579C39.7734 141.268 38.71 140.204 37.3984 140.204Z" fill="#AA5C27"/>
<rect x="35.0234" y="62.2461" width="4.83462" height="23.5688" rx="2.41731" fill="#AA5C27"/>
</svg>
