<svg width="737" height="337" viewBox="0 0 737 337" fill="none" xmlns="http://www.w3.org/2000/svg">
<g clip-path="url(#clip0_233_445)">
<path d="M455.223 138.135C455.223 184.214 419.315 210.959 368.5 211.55C305.8 212.28 281.778 177.201 281.778 131.122C281.778 108.083 293.483 86.4263 310.405 71.3369C333.727 50.5411 345.581 36.1741 345.398 18.5011C344.992 -20.7526 393.628 12.6425 419.854 45.3577C446.079 78.0728 455.223 115.096 455.223 138.135Z" fill="#FE7605"/>
<path d="M433.674 146.192C433.674 174.195 407.529 194.633 369.766 194.992C323.17 195.435 305.318 174.117 305.318 146.114C305.318 132.113 316.215 112.838 328.79 103.668C346.122 91.0301 351.888 88.3949 352.597 77.6728C355.178 38.6879 396.179 67.0687 419.393 101.787C431.181 119.415 433.674 132.19 433.674 146.192Z" fill="#FFD700"/>
<path d="M379.136 167.457C372.821 167.457 375.139 167.458 370.393 167.457C365.647 167.455 366.536 167.456 360.678 167.456C356.792 167.456 353.881 168.233 353.878 173.552C353.874 178.871 355.844 181.044 358.951 184.534C362.059 188.023 366.354 190.184 371.1 190.19C375.846 190.195 380.145 188.045 383.259 184.564C386.374 181.082 387.895 178.634 387.879 173.32C387.856 168.006 382.904 167.456 379.136 167.457Z" fill="#222831"/>
<path d="M407.831 148.537C403.328 143.297 402.015 141.279 396.862 141.281C391.709 141.282 389.216 142.722 385.515 148.131C382.668 152.292 378.168 149.637 378.164 144.959C378.16 140.282 380.299 138.371 383.672 135.302C387.046 132.233 391.709 130.333 396.862 130.328C402.015 130.323 406.683 132.214 410.064 135.276C413.445 138.337 415.096 140.49 415.079 145.163C415.055 149.836 410.96 152.179 407.831 148.537Z" fill="#222831"/>
<path d="M352.458 148.537C347.955 143.297 346.642 141.279 341.489 141.281C336.336 141.282 333.843 142.722 330.142 148.131C327.295 152.292 322.795 149.637 322.791 144.959C322.787 140.282 324.926 138.371 328.299 135.302C331.673 132.233 336.336 130.333 341.489 130.328C346.642 130.323 351.31 132.214 354.691 135.276C358.072 138.337 359.723 140.49 359.706 145.163C359.682 149.836 355.587 152.179 352.458 148.537Z" fill="#222831"/>
</g>
<path d="M81.51 318.408C71.526 318.408 62.95 316.488 55.782 312.648C48.614 308.808 43.11 303.389 39.27 296.392C35.5153 289.395 33.638 281.203 33.638 271.816C33.638 264.819 34.7047 258.461 36.838 252.744C39.0567 247.027 42.214 242.12 46.31 238.024C50.4913 233.928 55.526 230.813 61.414 228.68C67.3873 226.461 74.086 225.352 81.51 225.352C85.4353 225.352 89.4887 225.821 93.67 226.76C97.9367 227.613 101.691 228.936 104.934 230.728C107.323 232.008 108.987 233.629 109.926 235.592C110.865 237.555 111.163 239.56 110.822 241.608C110.566 243.656 109.841 245.491 108.646 247.112C107.451 248.733 105.915 249.843 104.038 250.44C102.161 250.952 100.113 250.653 97.894 249.544C95.334 248.349 92.774 247.453 90.214 246.856C87.7393 246.173 85.1367 245.832 82.406 245.832C77.1153 245.832 72.678 246.856 69.094 248.904C65.5953 250.867 62.95 253.768 61.158 257.608C59.366 261.448 58.47 266.184 58.47 271.816C58.47 277.448 59.366 282.227 61.158 286.152C62.95 289.992 65.5953 292.936 69.094 294.984C72.678 296.947 77.1153 297.928 82.406 297.928C84.6247 297.928 87.014 297.672 89.574 297.16C92.134 296.563 94.6513 295.667 97.126 294.472C99.686 293.363 101.947 293.064 103.91 293.576C105.958 294.088 107.579 295.112 108.774 296.648C110.054 298.184 110.865 299.976 111.206 302.024C111.547 303.987 111.249 305.949 110.31 307.912C109.457 309.875 107.921 311.453 105.702 312.648C102.715 314.44 99.0033 315.848 94.566 316.872C90.214 317.896 85.862 318.408 81.51 318.408ZM133.795 318.152C130.211 318.152 127.438 317.171 125.475 315.208C123.512 313.245 122.531 310.387 122.531 306.632V237.128C122.531 233.373 123.512 230.515 125.475 228.552C127.438 226.589 130.211 225.608 133.795 225.608C137.464 225.608 140.28 226.589 142.243 228.552C144.291 230.515 145.315 233.373 145.315 237.128V265.032H143.267C145.315 261.021 148.216 257.949 151.971 255.816C155.811 253.683 160.163 252.616 165.027 252.616C170.062 252.616 174.2 253.597 177.443 255.56C180.686 257.437 183.118 260.424 184.739 264.52C186.36 268.531 187.171 273.608 187.171 279.752V306.632C187.171 310.387 186.19 313.245 184.227 315.208C182.264 317.171 179.448 318.152 175.779 318.152C172.11 318.152 169.294 317.171 167.331 315.208C165.368 313.245 164.387 310.387 164.387 306.632V280.648C164.387 276.808 163.704 274.077 162.339 272.456C161.059 270.835 159.139 270.024 156.579 270.024C153.166 270.024 150.435 271.133 148.387 273.352C146.339 275.485 145.315 278.387 145.315 282.056V306.632C145.315 314.312 141.475 318.152 133.795 318.152ZM222.044 318.408C217.18 318.408 212.871 317.512 209.116 315.72C205.447 313.928 202.545 311.496 200.412 308.424C198.364 305.267 197.34 301.683 197.34 297.672C197.34 293.064 198.535 289.437 200.924 286.792C203.313 284.147 207.153 282.269 212.444 281.16C217.735 279.965 224.775 279.368 233.564 279.368H240.604V290.12H233.564C230.236 290.12 227.463 290.376 225.244 290.888C223.111 291.315 221.532 292.04 220.508 293.064C219.484 294.003 218.972 295.24 218.972 296.776C218.972 298.739 219.655 300.36 221.02 301.64C222.471 302.92 224.519 303.56 227.164 303.56C229.297 303.56 231.175 303.091 232.796 302.152C234.503 301.213 235.868 299.933 236.892 298.312C237.916 296.605 238.428 294.643 238.428 292.424V277.576C238.428 274.504 237.617 272.328 235.996 271.048C234.46 269.768 231.772 269.128 227.932 269.128C225.884 269.128 223.58 269.384 221.02 269.896C218.46 270.323 215.601 271.133 212.444 272.328C210.14 273.181 208.177 273.309 206.556 272.712C204.935 272.115 203.655 271.091 202.716 269.64C201.863 268.189 201.436 266.611 201.436 264.904C201.521 263.197 202.076 261.576 203.1 260.04C204.209 258.504 205.873 257.309 208.092 256.456C212.188 254.92 215.943 253.896 219.356 253.384C222.855 252.872 226.055 252.616 228.956 252.616C235.953 252.616 241.713 253.64 246.236 255.688C250.844 257.651 254.257 260.723 256.476 264.904C258.78 269 259.932 274.291 259.932 280.776V306.632C259.932 310.387 259.036 313.245 257.244 315.208C255.452 317.171 252.849 318.152 249.436 318.152C245.937 318.152 243.249 317.171 241.372 315.208C239.58 313.245 238.684 310.387 238.684 306.632V303.304L239.452 305.096C239.025 307.827 238.044 310.173 236.508 312.136C234.972 314.099 232.967 315.635 230.492 316.744C228.017 317.853 225.201 318.408 222.044 318.408ZM284.426 318.152C280.842 318.152 278.069 317.171 276.106 315.208C274.143 313.245 273.162 310.387 273.162 306.632V264.264C273.162 260.595 274.101 257.779 275.978 255.816C277.941 253.853 280.714 252.872 284.298 252.872C287.882 252.872 290.613 253.853 292.49 255.816C294.367 257.779 295.306 260.595 295.306 264.264V271.304L293.898 265.032C295.69 261.277 298.335 258.291 301.834 256.072C305.418 253.768 309.642 252.616 314.506 252.616C319.114 252.616 323.039 253.725 326.282 255.944C329.61 258.163 331.999 261.533 333.45 266.056H331.658C333.621 261.875 336.565 258.589 340.49 256.2C344.415 253.811 348.767 252.616 353.546 252.616C358.495 252.616 362.549 253.597 365.706 255.56C368.863 257.437 371.21 260.424 372.746 264.52C374.367 268.531 375.178 273.608 375.178 279.752V306.632C375.178 310.387 374.154 313.245 372.106 315.208C370.143 317.171 367.327 318.152 363.658 318.152C360.074 318.152 357.301 317.171 355.338 315.208C353.375 313.245 352.394 310.387 352.394 306.632V280.392C352.394 276.723 351.839 274.077 350.73 272.456C349.621 270.835 347.786 270.024 345.226 270.024C342.069 270.024 339.637 271.133 337.93 273.352C336.309 275.571 335.498 278.728 335.498 282.824V306.632C335.498 310.387 334.517 313.245 332.554 315.208C330.591 317.171 327.775 318.152 324.106 318.152C320.437 318.152 317.621 317.171 315.658 315.208C313.695 313.245 312.714 310.387 312.714 306.632V280.392C312.714 276.723 312.159 274.077 311.05 272.456C309.941 270.835 308.106 270.024 305.546 270.024C302.474 270.024 300.085 271.133 298.378 273.352C296.757 275.571 295.946 278.728 295.946 282.824V306.632C295.946 314.312 292.106 318.152 284.426 318.152ZM399.67 318.152C396.086 318.152 393.313 317.085 391.35 314.952C389.387 312.819 388.406 309.747 388.406 305.736V265.288C388.406 261.277 389.387 258.205 391.35 256.072C393.313 253.939 396.086 252.872 399.67 252.872C403.339 252.872 406.155 253.939 408.118 256.072C410.166 258.205 411.19 261.277 411.19 265.288V305.736C411.19 309.747 410.209 312.819 408.246 314.952C406.283 317.085 403.425 318.152 399.67 318.152ZM399.67 243.784C395.659 243.784 392.545 242.845 390.326 240.968C388.193 239.091 387.126 236.36 387.126 232.776C387.126 229.277 388.193 226.589 390.326 224.712C392.545 222.835 395.659 221.896 399.67 221.896C403.851 221.896 407.009 222.835 409.142 224.712C411.275 226.589 412.342 229.277 412.342 232.776C412.342 236.36 411.275 239.091 409.142 240.968C407.009 242.845 403.851 243.784 399.67 243.784ZM435.67 318.152C432.086 318.152 429.313 317.171 427.35 315.208C425.387 313.245 424.406 310.387 424.406 306.632V264.264C424.406 260.595 425.345 257.779 427.222 255.816C429.185 253.853 431.958 252.872 435.542 252.872C439.126 252.872 441.857 253.853 443.734 255.816C445.611 257.779 446.55 260.595 446.55 264.264V270.28L445.142 265.032C447.19 261.021 450.091 257.949 453.846 255.816C457.686 253.683 462.038 252.616 466.902 252.616C471.937 252.616 476.075 253.597 479.318 255.56C482.561 257.437 484.993 260.424 486.614 264.52C488.235 268.531 489.046 273.608 489.046 279.752V306.632C489.046 310.387 488.065 313.245 486.102 315.208C484.139 317.171 481.323 318.152 477.654 318.152C473.985 318.152 471.169 317.171 469.206 315.208C467.243 313.245 466.262 310.387 466.262 306.632V280.648C466.262 276.808 465.579 274.077 464.214 272.456C462.934 270.835 461.014 270.024 458.454 270.024C455.041 270.024 452.31 271.133 450.262 273.352C448.214 275.485 447.19 278.387 447.19 282.056V306.632C447.19 314.312 443.35 318.152 435.67 318.152ZM513.295 318.152C509.711 318.152 506.938 317.171 504.975 315.208C503.012 313.245 502.031 310.387 502.031 306.632V237.128C502.031 233.373 503.012 230.515 504.975 228.552C506.938 226.589 509.711 225.608 513.295 225.608C516.964 225.608 519.78 226.589 521.743 228.552C523.791 230.515 524.815 233.373 524.815 237.128V265.032H522.767C524.815 261.021 527.716 257.949 531.471 255.816C535.311 253.683 539.663 252.616 544.527 252.616C549.562 252.616 553.7 253.597 556.943 255.56C560.186 257.437 562.618 260.424 564.239 264.52C565.86 268.531 566.671 273.608 566.671 279.752V306.632C566.671 310.387 565.69 313.245 563.727 315.208C561.764 317.171 558.948 318.152 555.279 318.152C551.61 318.152 548.794 317.171 546.831 315.208C544.868 313.245 543.887 310.387 543.887 306.632V280.648C543.887 276.808 543.204 274.077 541.839 272.456C540.559 270.835 538.639 270.024 536.079 270.024C532.666 270.024 529.935 271.133 527.887 273.352C525.839 275.485 524.815 278.387 524.815 282.056V306.632C524.815 314.312 520.975 318.152 513.295 318.152ZM601.544 318.408C596.68 318.408 592.371 317.512 588.616 315.72C584.947 313.928 582.045 311.496 579.912 308.424C577.864 305.267 576.84 301.683 576.84 297.672C576.84 293.064 578.035 289.437 580.424 286.792C582.813 284.147 586.653 282.269 591.944 281.16C597.235 279.965 604.275 279.368 613.064 279.368H620.104V290.12H613.064C609.736 290.12 606.963 290.376 604.744 290.888C602.611 291.315 601.032 292.04 600.008 293.064C598.984 294.003 598.472 295.24 598.472 296.776C598.472 298.739 599.155 300.36 600.52 301.64C601.971 302.92 604.019 303.56 606.664 303.56C608.797 303.56 610.675 303.091 612.296 302.152C614.003 301.213 615.368 299.933 616.392 298.312C617.416 296.605 617.928 294.643 617.928 292.424V277.576C617.928 274.504 617.117 272.328 615.496 271.048C613.96 269.768 611.272 269.128 607.432 269.128C605.384 269.128 603.08 269.384 600.52 269.896C597.96 270.323 595.101 271.133 591.944 272.328C589.64 273.181 587.677 273.309 586.056 272.712C584.435 272.115 583.155 271.091 582.216 269.64C581.363 268.189 580.936 266.611 580.936 264.904C581.021 263.197 581.576 261.576 582.6 260.04C583.709 258.504 585.373 257.309 587.592 256.456C591.688 254.92 595.443 253.896 598.856 253.384C602.355 252.872 605.555 252.616 608.456 252.616C615.453 252.616 621.213 253.64 625.736 255.688C630.344 257.651 633.757 260.723 635.976 264.904C638.28 269 639.432 274.291 639.432 280.776V306.632C639.432 310.387 638.536 313.245 636.744 315.208C634.952 317.171 632.349 318.152 628.936 318.152C625.437 318.152 622.749 317.171 620.872 315.208C619.08 313.245 618.184 310.387 618.184 306.632V303.304L618.952 305.096C618.525 307.827 617.544 310.173 616.008 312.136C614.472 314.099 612.467 315.635 609.992 316.744C607.517 317.853 604.701 318.408 601.544 318.408ZM677.494 318.408C673.739 318.408 669.899 318.109 665.974 317.512C662.134 317 658.635 316.019 655.478 314.568C653.345 313.715 651.809 312.563 650.87 311.112C650.017 309.661 649.59 308.125 649.59 306.504C649.675 304.883 650.145 303.432 650.998 302.152C651.937 300.787 653.131 299.848 654.582 299.336C656.118 298.739 657.825 298.781 659.702 299.464C663.286 300.744 666.486 301.683 669.302 302.28C672.203 302.792 674.977 303.048 677.622 303.048C680.779 303.048 683.041 302.621 684.406 301.768C685.771 300.829 686.454 299.635 686.454 298.184C686.454 296.904 685.985 295.923 685.046 295.24C684.193 294.557 682.955 294.088 681.334 293.832L667.126 291.528C661.835 290.589 657.739 288.669 654.838 285.768C651.937 282.781 650.486 278.899 650.486 274.12C650.486 269.683 651.723 265.885 654.198 262.728C656.758 259.485 660.214 257.011 664.566 255.304C669.003 253.512 674.081 252.616 679.798 252.616C683.638 252.616 687.137 252.915 690.294 253.512C693.451 254.024 696.523 255.005 699.51 256.456C701.387 257.224 702.71 258.333 703.478 259.784C704.246 261.235 704.545 262.771 704.374 264.392C704.203 265.928 703.649 267.379 702.71 268.744C701.857 270.024 700.662 270.92 699.126 271.432C697.59 271.859 695.798 271.731 693.75 271.048C690.934 269.939 688.417 269.128 686.198 268.616C684.065 268.104 682.059 267.848 680.182 267.848C676.683 267.848 674.209 268.317 672.758 269.256C671.307 270.195 670.582 271.389 670.582 272.84C670.582 273.949 670.966 274.888 671.734 275.656C672.502 276.339 673.697 276.808 675.318 277.064L689.526 279.496C694.987 280.349 699.169 282.227 702.07 285.128C705.057 287.944 706.55 291.784 706.55 296.648C706.55 303.56 703.905 308.936 698.614 312.776C693.323 316.531 686.283 318.408 677.494 318.408Z" fill="#4B4B4B"/>
<defs>
<clipPath id="clip0_233_445">
<rect width="175" height="212" fill="white" transform="translate(281)"/>
</clipPath>
</defs>
</svg>
