<svg width="305" height="305" viewBox="0 0 305 305" fill="none" xmlns="http://www.w3.org/2000/svg">
<path d="M152.5 305C236.723 305 305 294.479 305 281.501C305 268.523 236.723 258.002 152.5 258.002C68.2766 258.002 0 268.523 0 281.501C0 294.479 68.2766 305 152.5 305Z" fill="#B8B8B8" fill-opacity="0.980392"/>
<path d="M116.537 125.899C202.702 125.899 201.495 159.897 201.495 201.835C201.495 243.774 202.702 277.771 116.537 277.771C84.3908 277.771 71.186 278.52 55.4524 276.118C36.6383 238.824 33.8936 236.059 33.8936 201.835C33.8936 163.865 38.1068 160.029 55.4524 127.397C72.3098 125.524 90.3048 125.899 116.537 125.899Z" fill="#C36724"/>
<ellipse cx="57.3249" cy="201.479" rx="74.2633" ry="44.2028" transform="rotate(-90 57.3249 201.479)" fill="#AA5C27"/>
<path d="M57.3234 136.674C77.0299 136.674 93.0052 165.745 93.0052 201.606C93.0052 237.468 77.0299 266.539 57.3234 266.539C37.6169 266.539 21.6416 237.468 21.6416 201.606C21.6416 165.745 37.6169 136.674 57.3234 136.674Z" fill="#FEC67A"/>
<ellipse cx="57.3261" cy="201.462" rx="50.1977" ry="26.2226" transform="rotate(-90 57.3261 201.462)" fill="#EA9D4A"/>
<ellipse cx="57.5035" cy="201.607" rx="32.9775" ry="14.2017" transform="rotate(-90 57.5035 201.607)" fill="#EA9D4A"/>
<path d="M57.3273 171.493C66.0167 171.493 73.0609 185.078 73.0609 201.836C73.0609 218.594 66.0167 232.179 57.3273 232.179C48.6379 232.179 41.5938 218.594 41.5938 201.836C41.5938 185.078 48.6379 171.493 57.3273 171.493Z" fill="#FEC67A"/>
<ellipse cx="56.9523" cy="201.836" rx="12.3621" ry="6.36835" transform="rotate(-90 56.9523 201.836)" fill="#EA9D4A"/>
<rect x="91.041" y="246.523" width="5.88843" height="26.6284" rx="2.94421" transform="rotate(-90 91.041 246.523)" fill="#AA5C27"/>
<rect x="174.203" y="182.09" width="5.88843" height="26.6284" rx="2.94421" transform="rotate(-90 174.203 182.09)" fill="#AA5C27"/>
<rect x="90.9209" y="176.197" width="5.88843" height="36.8098" rx="2.94421" transform="rotate(-90 90.9209 176.197)" fill="#AA5C27"/>
<rect x="149.855" y="226.494" width="5.88843" height="26.6284" rx="2.94421" transform="rotate(-90 149.855 226.494)" fill="#AA5C27"/>
<rect x="109.022" y="266.752" width="5.88843" height="26.6284" rx="2.94421" transform="rotate(-90 109.022 266.752)" fill="#AA5C27"/>
<rect width="5.84511" height="25.9429" rx="2.92255" transform="matrix(0.161527 -0.986868 0.968524 0.24892 145.743 145.448)" fill="#AA5C27"/>
<rect width="5.5659" height="16.29" rx="2.78295" transform="matrix(0.457302 0.889311 0.778035 -0.628221 173.35 253.684)" fill="#AA5C27"/>
<rect x="77.5557" y="142.382" width="5.88843" height="26.6284" rx="2.94421" transform="rotate(-90 77.5557 142.382)" fill="#AA5C27"/>
<path d="M162.241 0.0306368C248.405 0.0306368 247.198 34.0284 247.198 75.9668C247.198 117.905 248.405 151.903 162.241 151.903C130.094 151.903 116.889 152.652 101.156 150.249C82.3414 112.956 79.5967 110.191 79.5967 75.9668C79.5967 37.9961 83.8099 34.1604 101.156 1.52875C118.013 -0.344293 136.008 0.0306368 162.241 0.0306368Z" fill="#C36724"/>
<ellipse cx="103.027" cy="75.6109" rx="74.2633" ry="44.2028" transform="rotate(-90 103.027 75.6109)" fill="#AA5C27"/>
<path d="M103.027 10.8057C122.734 10.8057 138.709 39.877 138.709 75.7382C138.709 111.599 122.734 140.671 103.027 140.671C83.321 140.671 67.3457 111.599 67.3457 75.7382C67.3457 39.877 83.321 10.8057 103.027 10.8057Z" fill="#FEC67A"/>
<ellipse cx="103.028" cy="75.5934" rx="50.1977" ry="26.2226" transform="rotate(-90 103.028 75.5934)" fill="#EA9D4A"/>
<ellipse cx="103.206" cy="75.7386" rx="32.9775" ry="14.2017" transform="rotate(-90 103.206 75.7386)" fill="#EA9D4A"/>
<path d="M103.029 45.6248C111.719 45.6248 118.763 59.21 118.763 75.9682C118.763 92.7263 111.719 106.312 103.029 106.312C94.3401 106.312 87.2959 92.7263 87.2959 75.9682C87.2959 59.21 94.3401 45.6248 103.029 45.6248Z" fill="#FEC67A"/>
<ellipse cx="102.654" cy="75.9682" rx="12.3621" ry="6.36835" transform="rotate(-90 102.654 75.9682)" fill="#EA9D4A"/>
<rect x="136.745" y="120.655" width="5.88843" height="26.6284" rx="2.94421" transform="rotate(-90 136.745 120.655)" fill="#AA5C27"/>
<rect x="219.907" y="56.2219" width="5.88843" height="26.6284" rx="2.94421" transform="rotate(-90 219.907 56.2219)" fill="#AA5C27"/>
<rect x="136.623" y="50.3276" width="5.88843" height="36.8098" rx="2.94421" transform="rotate(-90 136.623 50.3276)" fill="#AA5C27"/>
<rect x="195.558" y="100.625" width="5.88843" height="26.6284" rx="2.94421" transform="rotate(-90 195.558 100.625)" fill="#AA5C27"/>
<rect x="154.725" y="140.884" width="5.88843" height="26.6284" rx="2.94421" transform="rotate(-90 154.725 140.884)" fill="#AA5C27"/>
<rect width="5.84511" height="25.9429" rx="2.92255" transform="matrix(0.161527 -0.986868 0.968524 0.24892 191.444 19.5793)" fill="#AA5C27"/>
<rect width="5.5659" height="16.29" rx="2.78295" transform="matrix(0.457302 0.889311 0.778035 -0.628221 219.054 127.816)" fill="#AA5C27"/>
<rect x="123.257" y="16.5134" width="5.88843" height="26.6284" rx="2.94421" transform="rotate(-90 123.257 16.5134)" fill="#AA5C27"/>
<path d="M204.947 127.398C291.111 127.398 289.904 161.395 289.904 203.334C289.904 245.272 291.111 279.27 204.947 279.27C172.8 279.27 159.595 280.019 143.862 277.616C125.047 240.323 122.303 237.558 122.303 203.334C122.303 165.363 126.516 161.527 143.862 128.896C160.719 127.023 178.714 127.398 204.947 127.398Z" fill="#C36724"/>
<ellipse cx="145.734" cy="202.978" rx="74.2633" ry="44.2028" transform="rotate(-90 145.734 202.978)" fill="#AA5C27"/>
<path d="M145.734 138.173C165.44 138.173 181.415 167.244 181.415 203.105C181.415 238.967 165.44 268.038 145.734 268.038C126.027 268.038 110.052 238.967 110.052 203.105C110.052 167.244 126.027 138.173 145.734 138.173Z" fill="#FEC67A"/>
<ellipse cx="145.734" cy="202.961" rx="50.1977" ry="26.2226" transform="rotate(-90 145.734 202.961)" fill="#EA9D4A"/>
<ellipse cx="145.912" cy="203.106" rx="32.9775" ry="14.2017" transform="rotate(-90 145.912 203.106)" fill="#EA9D4A"/>
<path d="M145.734 172.992C154.423 172.992 161.467 186.577 161.467 203.335C161.467 220.093 154.423 233.678 145.734 233.678C137.044 233.678 130 220.093 130 203.335C130 186.577 137.044 172.992 145.734 172.992Z" fill="#FEC67A"/>
<ellipse cx="145.36" cy="203.335" rx="12.3621" ry="6.36835" transform="rotate(-90 145.36 203.335)" fill="#EA9D4A"/>
<rect x="179.448" y="248.022" width="5.88843" height="26.6284" rx="2.94421" transform="rotate(-90 179.448 248.022)" fill="#AA5C27"/>
<rect x="262.612" y="183.589" width="5.88843" height="26.6284" rx="2.94421" transform="rotate(-90 262.612 183.589)" fill="#AA5C27"/>
<rect x="179.327" y="177.695" width="5.88843" height="36.8098" rx="2.94421" transform="rotate(-90 179.327 177.695)" fill="#AA5C27"/>
<rect x="238.262" y="227.993" width="5.88843" height="26.6284" rx="2.94421" transform="rotate(-90 238.262 227.993)" fill="#AA5C27"/>
<rect x="197.43" y="268.251" width="5.88843" height="26.6284" rx="2.94421" transform="rotate(-90 197.43 268.251)" fill="#AA5C27"/>
<rect width="5.84511" height="25.9429" rx="2.92255" transform="matrix(0.161527 -0.986868 0.968524 0.24892 234.151 146.947)" fill="#AA5C27"/>
<rect width="5.5659" height="16.29" rx="2.78295" transform="matrix(0.457302 0.889311 0.778035 -0.628221 261.757 255.183)" fill="#AA5C27"/>
<rect x="165.963" y="143.881" width="5.88843" height="26.6284" rx="2.94421" transform="rotate(-90 165.963 143.881)" fill="#AA5C27"/>
</svg>
