<?xml version="1.0" encoding="UTF-8" standalone="no"?>
<!-- Created with Inkscape (http://www.inkscape.org/) -->

<svg
   width="84.365623mm"
   height="136.88562mm"
   viewBox="0 0 84.365623 136.88562"
   version="1.1"
   id="svg1"
   xml:space="preserve"
   xmlns="http://www.w3.org/2000/svg"
   xmlns:svg="http://www.w3.org/2000/svg"><defs
     id="defs1" /><g
     id="layer4"
     transform="translate(-53.337514,-73.793327)"><ellipse
       style="fill:#b8b8b8;fill-opacity:0.980392;stroke:none;stroke-width:0.750001;stroke-dasharray:none;stroke-opacity:1"
       id="path11"
       cx="96.047371"
       cy="204.42632"
       rx="30.221052"
       ry="6.2526317" /><path
       id="path4"
       style="fill:#39321e;fill-opacity:1;stroke:none;stroke-width:0.5;stroke-dasharray:none;stroke-opacity:1"
       d="m 106.55525,175.7686 c -4.85487,5e-5 -9.174745,-1.43171 -10.75593,3.75412 -1.726021,-4.88337 -5.910931,-3.17384 -10.565246,-3.17379 -6.282998,-1.6e-4 -11.376474,5.75409 -11.376567,12.85244 -1.61e-4,7.09855 5.093389,12.85312 11.376567,12.85296 4.85499,-1.3e-4 7.611747,-2.96008 10.842775,-7.2777 3.636544,3.58074 5.824081,6.69691 10.478401,6.69686 6.283,1.6e-4 11.37648,-5.7541 11.37657,-12.85245 -9e-5,-7.09835 -5.09357,-12.8526 -11.37657,-12.85244 z" /></g><g
     id="layer2"
     transform="translate(-53.337514,-73.793327)"><path
       id="path2"
       style="fill:#fe7605;fill-opacity:1;stroke:none;stroke-width:0.75;stroke-dasharray:none;stroke-opacity:1"
       d="m 137.32813,145.63499 c 0,23.96491 -17.31072,37.87432 -41.807809,38.18177 -30.227145,0.37937 -41.807809,-17.86423 -41.807807,-41.82914 1e-6,-11.98245 5.642666,-23.2455 13.800671,-31.09325 11.24308,-10.8155 16.957865,-18.287533 16.869655,-27.478947 -0.195923,-20.415141 23.25109,-3.046944 35.89425,13.967619 12.64316,17.014568 17.05104,36.269498 17.05104,48.251948 z" /><path
       id="path1"
       style="fill:#ffd700;fill-opacity:1;stroke:#ffd700;stroke-width:0.504023;stroke-dasharray:none;stroke-opacity:1"
       d="m 126.93956,149.82499 c 0,14.56388 -12.60394,25.1933 -30.809041,25.38015 -22.463409,0.23055 -31.069621,-10.85638 -31.069621,-25.42027 0,-7.28192 5.252929,-17.30641 11.315584,-22.07562 8.355328,-6.57277 11.135007,-7.94328 11.477172,-13.51966 1.244088,-20.275329 21.010086,-5.515 32.201546,12.5412 5.68267,9.16836 6.88436,15.81227 6.88436,23.0942 z" /></g><g
     id="layer5"
     transform="translate(-53.337514,-73.793327)"><ellipse
       style="fill:#ffffff;fill-opacity:1;stroke:none;stroke-width:0.5;stroke-dasharray:none;stroke-opacity:1"
       id="path7"
       cx="110.98421"
       cy="150.7579"
       rx="11.115789"
       ry="13.612082" /><ellipse
       style="fill:#222831;fill-opacity:1;stroke:none;stroke-width:1;stroke-dasharray:none;stroke-opacity:1"
       id="path8"
       ry="8.1056767"
       rx="6.631917"
       cy="151.67441"
       cx="109.42664" /><ellipse
       style="fill:#ffffff;fill-opacity:1;stroke:none;stroke-width:0.5;stroke-dasharray:none;stroke-opacity:1"
       id="ellipse8"
       cx="-81.017769"
       cy="151.00352"
       rx="11.115789"
       ry="13.612082"
       transform="scale(-1,1)" /><ellipse
       style="fill:#222831;fill-opacity:1;stroke:none;stroke-width:1;stroke-dasharray:none;stroke-opacity:1"
       id="ellipse9"
       ry="8.1056767"
       rx="6.631917"
       cy="151.92003"
       cx="-82.575333"
       transform="scale(-1,1)" /><path
       id="path15"
       style="fill:#222831;fill-opacity:1;stroke-width:0.25"
       d="m 99.674917,170.01951 c -1.288771,-0.96846 -1.672073,-1.73849 -3.146947,-1.73817 -1.474875,3.2e-4 -2.181001,0.66346 -3.240207,1.66303 -0.815064,0.76917 -2.103052,0.27846 -2.104134,-0.58612 -0.0011,-0.86458 0.610954,-1.21776 1.576627,-1.78489 0.965672,-0.56713 2.300334,-0.91835 3.775206,-0.9193 1.474873,-9.5e-4 2.810855,0.34854 3.778668,0.91441 0.9678,0.56588 1.44044,0.96371 1.43555,1.82742 -0.007,0.8637 -1.17915,1.29663 -2.074763,0.62362 z" /></g></svg>
