<svg width="284" height="461" viewBox="0 0 284 461" fill="none" xmlns="http://www.w3.org/2000/svg">
<path d="M143.774 461C199.96 461 245.507 451.572 245.507 439.942C245.507 428.313 199.96 418.885 143.774 418.885C87.5885 418.885 42.041 428.313 42.041 439.942C42.041 451.572 87.5885 461 143.774 461Z" fill="#B8B8B8" fill-opacity="0.980392"/>
<path d="M169.191 343.667C156.633 343.667 145.459 338.847 141.369 356.306C136.905 339.865 126.08 345.621 114.041 345.621C97.7886 345.62 84.6135 364.993 84.6133 388.891C84.6129 412.79 97.7882 432.163 114.041 432.163C126.599 432.162 133.73 422.197 142.087 407.661C151.494 419.716 157.152 430.208 169.191 430.207C185.443 430.208 198.618 410.835 198.619 386.937C198.618 363.039 185.443 343.666 169.191 343.667Z" fill="#E5570B"/>
<path d="M105.848 366.039C105.848 366.039 115.685 324.24 108.805 318.043C99.5184 309.676 82.9136 321.084 61.6533 344.706C40.3923 368.328 43.2617 384.479 52.5497 392.845C59.7266 399.309 77.7987 392.845 77.7987 392.845C77.7987 392.845 105.493 374.069 105.848 366.039Z" fill="#FE7605"/>
<path d="M171.623 366.039C171.623 366.039 161.786 324.24 168.666 318.043C177.952 309.676 194.557 321.084 215.817 344.706C237.078 368.328 234.209 384.479 224.921 392.845C217.744 399.309 199.672 392.845 199.672 392.845C199.672 392.845 171.978 374.069 171.623 366.039Z" fill="#FE7605"/>
<path d="M200.476 325.87C200.476 374.304 154.357 376.995 139.417 376.995C126.592 376.995 77.0615 376.322 77.061 325.87L139.418 325.87C139.418 325.87 200.651 326.754 200.476 325.87Z" fill="#FE7605"/>
<path d="M113.673 29.573C113.33 -9.50784 146.548 7.98413 173.113 37.4919C175.356 39.7626 177.625 42.4606 179.889 45.4655C182.885 49.1978 185.738 53.0443 188.376 56.9323C196.978 69.611 203.874 83.3401 209.273 97.0495C209.782 94.5098 210.15 91.9853 210.364 89.4773C214.188 44.6372 245.575 122.427 254.37 153.038C265.615 192.173 268.68 210.744 263.371 241.696C257.366 276.703 243.687 299.785 226.817 310.447C204.943 330.023 175.044 340.901 141.171 341.366C54.559 342.556 21.376 285.342 21.376 210.184C21.376 209.142 21.415 208.089 21.4883 207.025C21.4915 206.655 21.4944 206.283 21.5 205.909C21.7832 187.039 25.9167 151.045 34.6309 124.42C43.3451 97.7948 59.1697 70.7577 58.5586 102.903C58.4515 108.534 58.9303 113.766 59.9727 119.07C64.8017 109.345 70.9955 100.524 78.0928 93.0466C101.805 68.064 113.859 50.8041 113.673 29.573Z" fill="#FE7605"/>
<path d="M152.432 84.0848C156.848 82.3552 160.923 82.0487 164.248 83.8924C167.568 85.7336 169.856 89.5631 171.067 95.4364C172.28 101.316 172.454 109.41 171.397 120.066C171.397 120.069 171.397 120.073 171.396 120.076C171.396 120.104 171.395 120.147 171.394 120.204C171.391 120.318 171.388 120.488 171.386 120.71C171.381 121.155 171.379 121.81 171.387 122.643C171.403 124.312 171.463 126.696 171.64 129.554C171.992 135.274 172.808 142.869 174.654 150.402C176.504 157.95 179.37 165.353 183.771 170.758C183.809 170.804 183.847 170.849 183.885 170.894C184.225 169.878 184.525 168.917 184.778 168.039C185.186 166.629 185.481 165.443 185.675 164.611C185.772 164.195 185.845 163.867 185.892 163.645C185.915 163.535 185.932 163.45 185.943 163.394C185.948 163.372 185.951 163.354 185.953 163.341C186.62 157.834 187.623 153.729 188.921 150.855C190.217 147.986 191.881 146.191 193.946 145.612C196.016 145.032 198.18 145.758 200.266 147.198C202.359 148.644 204.517 150.904 206.669 153.694C215.264 164.841 224.411 185.316 229.504 200.757C232.148 208.771 233.328 215.421 233.532 221.465C233.957 224.774 234.225 227.864 234.39 230.541C234.568 233.436 234.63 235.855 234.646 237.551C234.655 238.398 234.651 239.066 234.646 239.523C234.644 239.751 234.641 239.927 234.639 240.047C234.637 240.106 234.637 240.152 234.636 240.183C234.636 240.192 234.635 240.199 234.635 240.205L234.631 241.222C234.439 262.542 228.193 281.425 213.971 294.952C199.527 308.689 177.003 316.763 144.678 316.42C92.1621 315.863 55.4873 284.105 55.4873 240.323C55.4873 218.608 58.9684 198.765 75.3428 171.458C91.3923 144.692 117.143 110.336 137.888 93.3006C143.078 89.0386 148.006 85.8182 152.432 84.0848Z" fill="#FFD700"/>
<path d="M185.764 287.324C203.346 287.324 217.598 269.863 217.598 248.324C217.598 226.785 203.346 209.324 185.764 209.324C168.183 209.324 153.931 226.785 153.931 248.324C153.931 269.863 168.183 287.324 185.764 287.324Z" fill="white"/>
<path d="M180.111 274.173C190.6 274.173 199.104 263.776 199.104 250.95C199.104 238.124 190.6 227.727 180.111 227.727C169.621 227.727 161.118 238.124 161.118 250.95C161.118 263.776 169.621 274.173 180.111 274.173Z" fill="#222831"/>
<path d="M99.9465 288.028C82.3653 288.028 68.1128 270.567 68.1128 249.028C68.1128 227.489 82.3653 210.028 99.9465 210.028C117.528 210.028 131.78 227.489 131.78 249.028C131.78 270.567 117.528 288.028 99.9465 288.028Z" fill="white"/>
<path d="M105.322 274.877C94.8324 274.877 86.3291 264.48 86.3291 251.654C86.3291 238.828 94.8324 228.43 105.322 228.43C115.811 228.43 124.314 238.828 124.314 251.654C124.314 264.48 115.811 274.877 105.322 274.877Z" fill="#222831"/>
<path d="M153.386 303.254C149.69 300.075 148.611 298.85 144.381 298.851C140.15 298.852 138.103 299.726 135.065 303.007C132.727 305.532 129.595 304.608 129.592 301.77C129.589 298.932 130.782 297.086 133.552 295.224C136.322 293.362 140.15 292.209 144.381 292.206C148.611 292.203 152.444 293.35 155.22 295.208C157.996 297.065 158.998 298.935 158.984 301.77C158.964 304.605 155.955 305.463 153.386 303.254Z" fill="#222831"/>
</svg>
