<svg width="284" height="461" viewBox="0 0 284 461" fill="none" xmlns="http://www.w3.org/2000/svg">
<g clip-path="url(#clip0_107_341)">
<path d="M143.775 461C199.961 461 245.508 451.572 245.508 439.942C245.508 428.313 199.961 418.885 143.775 418.885C87.5895 418.885 42.042 428.313 42.042 439.942C42.042 451.572 87.5895 461 143.775 461Z" fill="#B8B8B8" fill-opacity="0.980392"/>
<path d="M169.192 343.667C156.634 343.667 145.46 338.847 141.37 356.306C136.906 339.865 126.081 345.621 114.042 345.621C97.7896 345.62 84.6145 364.993 84.6143 388.891C84.6138 412.79 97.7891 432.163 114.042 432.163C126.6 432.162 133.731 422.197 142.088 407.661C151.495 419.716 157.153 430.208 169.192 430.207C185.444 430.208 198.619 410.835 198.62 386.937C198.619 363.039 185.444 343.666 169.192 343.667Z" fill="#E5570B"/>
<path d="M105.848 366.039C105.848 366.039 115.685 324.24 108.805 318.043C99.5184 309.676 82.9136 321.084 61.6533 344.706C40.3923 368.328 43.2617 384.479 52.5497 392.845C59.7266 399.309 77.7987 392.845 77.7987 392.845C77.7987 392.845 105.493 374.069 105.848 366.039Z" fill="#FE7605"/>
<path d="M171.624 366.039C171.624 366.039 161.787 324.24 168.667 318.043C177.953 309.676 194.558 321.084 215.818 344.706C237.079 368.328 234.21 384.479 224.922 392.845C217.745 399.309 199.673 392.845 199.673 392.845C199.673 392.845 171.979 374.069 171.624 366.039Z" fill="#FE7605"/>
<path d="M200.476 325.87C200.476 374.304 154.357 376.995 139.417 376.995C126.592 376.995 77.0615 376.322 77.061 325.87L139.418 325.87C139.418 325.87 200.651 326.754 200.476 325.87Z" fill="#FE7605"/>
<path d="M113.673 29.573C113.33 -9.50784 146.548 7.98413 173.113 37.4919C175.356 39.7626 177.625 42.4606 179.889 45.4655C182.885 49.1978 185.738 53.0443 188.376 56.9323C196.978 69.611 203.874 83.3401 209.273 97.0495C209.782 94.5098 210.15 91.9853 210.364 89.4773C214.188 44.6372 245.575 122.427 254.37 153.038C265.615 192.173 268.68 210.744 263.371 241.696C257.366 276.703 243.687 299.785 226.817 310.447C204.943 330.023 175.044 340.901 141.171 341.366C54.559 342.556 21.376 285.342 21.376 210.184C21.376 209.142 21.415 208.089 21.4883 207.025C21.4915 206.655 21.4944 206.283 21.5 205.909C21.7832 187.039 25.9167 151.045 34.6309 124.42C43.3451 97.7948 59.1697 70.7577 58.5586 102.903C58.4515 108.534 58.9303 113.766 59.9727 119.07C64.8017 109.345 70.9955 100.524 78.0928 93.0466C101.805 68.064 113.859 50.8041 113.673 29.573Z" fill="#FE7605"/>
<path d="M152.432 84.0851C156.848 82.3554 160.923 82.0489 164.248 83.8927C167.568 85.7339 169.856 89.5633 171.067 95.4366C172.28 101.316 172.454 109.411 171.397 120.067C171.397 120.069 171.397 120.073 171.396 120.076C171.396 120.105 171.395 120.148 171.394 120.204C171.391 120.318 171.388 120.488 171.386 120.71C171.381 121.155 171.379 121.81 171.387 122.644C171.403 124.312 171.463 126.696 171.64 129.554C171.993 135.274 172.808 142.869 174.654 150.402C176.504 157.95 179.37 165.353 183.771 170.758C183.809 170.804 183.847 170.849 183.885 170.895C184.225 169.879 184.525 168.917 184.778 168.039C185.185 166.63 185.481 165.443 185.675 164.611C185.772 164.196 185.845 163.867 185.892 163.646C185.915 163.535 185.932 163.45 185.943 163.394C185.948 163.371 185.951 163.353 185.953 163.34C186.62 157.833 187.623 153.729 188.921 150.856C190.217 147.986 191.881 146.191 193.946 145.611C196.016 145.031 198.18 145.757 200.266 147.197C202.359 148.644 204.517 150.904 206.669 153.694C215.264 164.841 224.411 185.316 229.504 200.757C232.148 208.771 233.328 215.422 233.532 221.465C233.957 224.774 234.225 227.864 234.39 230.541C234.568 233.437 234.63 235.855 234.646 237.551C234.655 238.399 234.651 239.067 234.646 239.524C234.644 239.752 234.641 239.928 234.639 240.047C234.637 240.107 234.637 240.153 234.636 240.184C234.636 240.192 234.635 240.199 234.635 240.205L234.631 241.222C234.439 262.543 228.193 281.426 213.971 294.952C199.527 308.689 177.003 316.763 144.678 316.42C92.1622 315.863 55.4874 284.105 55.4873 240.323C55.4873 218.608 58.9685 198.765 75.3428 171.458C91.3923 144.693 117.143 110.337 137.888 93.3009C143.078 89.0389 148.006 85.8185 152.432 84.0851Z" fill="#FFD700"/>
<path d="M185.764 287.324C203.346 287.324 217.598 269.863 217.598 248.324C217.598 226.785 203.346 209.324 185.764 209.324C168.183 209.324 153.931 226.785 153.931 248.324C153.931 269.863 168.183 287.324 185.764 287.324Z" fill="white"/>
<path d="M180.111 274.173C190.6 274.173 199.104 263.776 199.104 250.95C199.104 238.124 190.6 227.727 180.111 227.727C169.621 227.727 161.118 238.124 161.118 250.95C161.118 263.776 169.621 274.173 180.111 274.173Z" fill="#222831"/>
<path d="M99.9465 288.028C82.3653 288.028 68.1128 270.567 68.1128 249.028C68.1128 227.489 82.3653 210.028 99.9465 210.028C117.528 210.028 131.78 227.489 131.78 249.028C131.78 270.567 117.528 288.028 99.9465 288.028Z" fill="white"/>
<path d="M105.322 274.877C94.8324 274.877 86.3291 264.48 86.3291 251.654C86.3291 238.828 94.8324 228.43 105.322 228.43C115.811 228.43 124.314 238.828 124.314 251.654C124.314 264.48 115.811 274.877 105.322 274.877Z" fill="#222831"/>
<path d="M153.386 293.456C149.69 296.635 148.611 297.86 144.381 297.859C140.15 297.858 138.103 296.984 135.065 293.703C132.727 291.178 129.595 292.102 129.592 294.94C129.589 297.778 130.782 299.624 133.552 301.486C136.322 303.348 140.15 304.501 144.381 304.504C148.611 304.507 152.444 303.36 155.22 301.502C157.996 299.644 158.998 297.775 158.984 294.94C158.964 292.105 155.955 291.247 153.386 293.456Z" fill="#222831"/>
</g>
<defs>
<clipPath id="clip0_107_341">
<rect width="284" height="461" fill="white"/>
</clipPath>
</defs>
</svg>
