<svg width="245" height="455" viewBox="0 0 245 455" fill="none" xmlns="http://www.w3.org/2000/svg">
<path d="M122.774 455C178.96 455 224.507 445.572 224.507 433.942C224.507 422.312 178.96 412.885 122.774 412.885C66.5885 412.885 21.041 422.312 21.041 433.942C21.041 445.572 66.5885 455 122.774 455Z" fill="#B8B8B8" fill-opacity="0.980392"/>
<path d="M148.191 337.667C135.633 337.667 124.459 332.846 120.369 350.305C115.905 333.865 105.08 339.62 93.0406 339.62C76.7886 339.62 63.6135 358.993 63.6133 382.89C63.6129 406.789 76.7882 426.163 93.0406 426.162C105.599 426.162 112.73 416.197 121.087 401.661C130.494 413.716 136.152 424.207 148.191 424.207C164.443 424.207 177.618 404.835 177.619 380.937C177.618 357.039 164.443 337.666 148.191 337.667Z" fill="#E5570B"/>
<path d="M84.8477 360.039C84.8477 360.039 94.6851 318.24 87.8052 312.042C78.5184 303.676 61.9136 315.083 40.6533 338.706C19.3923 362.328 22.2617 378.479 31.5497 386.845C38.7266 393.309 56.7987 386.845 56.7987 386.845C56.7987 386.845 84.4926 368.068 84.8477 360.039Z" fill="#FE7605"/>
<path d="M150.623 360.039C150.623 360.039 140.786 318.24 147.666 312.042C156.952 303.676 173.557 315.083 194.817 338.706C216.078 362.328 213.209 378.479 203.921 386.845C196.744 393.309 178.672 386.845 178.672 386.845C178.672 386.845 150.978 368.068 150.623 360.039Z" fill="#FE7605"/>
<path d="M179.476 319.87C179.476 368.304 133.357 370.995 118.417 370.995C105.592 370.995 56.0615 370.322 56.061 319.87L118.418 319.87C118.418 319.87 179.651 320.755 179.476 319.87Z" fill="#FE7605"/>
<path d="M92.6729 23.5732C92.3304 -15.5076 125.548 1.98437 152.113 31.4922C154.356 33.7628 156.625 36.4608 158.889 39.4658C161.885 43.198 164.738 47.0446 167.376 50.9326C175.978 63.6112 182.874 77.3403 188.273 91.0498C188.782 88.5101 189.15 85.9856 189.364 83.4775C193.188 38.6374 224.575 116.427 233.37 147.038C244.615 186.174 247.68 204.745 242.371 235.696C236.366 270.703 222.687 293.785 205.817 304.447C183.943 324.024 154.044 334.901 120.171 335.366C33.559 336.556 0.37598 279.342 0.375977 204.185C0.375977 203.142 0.415014 202.089 0.488281 201.025C0.491466 200.655 0.494386 200.283 0.5 199.909C0.783218 181.04 4.9167 145.045 13.6309 118.42C22.3451 91.7951 38.1697 64.7579 37.5586 96.9033C37.4515 102.534 37.9303 107.767 38.9727 113.07C43.8017 103.345 49.9955 94.5244 57.0928 87.0468C80.8051 62.0642 92.8587 44.8043 92.6729 23.5732Z" fill="#FE7605"/>
<path d="M131.432 78.0858C135.848 76.3561 139.923 76.0496 143.248 77.8934C146.568 79.7347 148.856 83.5641 150.067 89.4374C151.28 95.317 151.454 103.412 150.397 114.067C150.397 114.07 150.397 114.074 150.396 114.077C150.396 114.105 150.395 114.149 150.394 114.205C150.391 114.319 150.388 114.489 150.386 114.711C150.381 115.156 150.379 115.811 150.387 116.644C150.403 118.313 150.463 120.697 150.64 123.555C150.993 129.275 151.808 136.87 153.654 144.403C155.504 151.951 158.37 159.354 162.771 164.759C162.809 164.804 162.847 164.849 162.885 164.894C163.225 163.878 163.525 162.917 163.778 162.039C164.185 160.63 164.481 159.443 164.675 158.611C164.772 158.195 164.845 157.868 164.892 157.646C164.915 157.536 164.932 157.451 164.943 157.394C164.948 157.372 164.951 157.354 164.953 157.341C165.62 151.834 166.623 147.73 167.921 144.856C169.217 141.987 170.881 140.191 172.946 139.612C175.016 139.032 177.18 139.758 179.266 141.198C181.359 142.644 183.517 144.905 185.669 147.695C194.264 158.842 203.411 179.317 208.504 194.758C211.147 202.772 212.328 209.422 212.532 215.466C212.957 218.775 213.225 221.865 213.39 224.542C213.568 227.437 213.63 229.856 213.646 231.552C213.655 232.399 213.651 233.067 213.646 233.524C213.644 233.752 213.641 233.928 213.639 234.048C213.637 234.107 213.637 234.154 213.636 234.184C213.636 234.192 213.635 234.2 213.635 234.206L213.631 235.223C213.439 256.543 207.193 275.426 192.971 288.953C178.527 302.69 156.003 310.764 123.678 310.421C71.1623 309.864 34.4876 278.106 34.4873 234.324C34.4873 212.609 37.9686 192.766 54.3428 165.459C70.3923 138.694 96.1426 104.337 116.888 87.3016C122.078 83.0397 127.006 79.8192 131.432 78.0858Z" fill="#FFD700"/>
<path d="M135.758 263.925C127.604 263.925 130.597 263.928 124.468 263.925C118.34 263.922 119.488 263.925 111.924 263.925C106.906 263.924 103.147 264.948 103.143 271.957C103.138 278.966 105.681 281.83 109.694 286.428C113.707 291.025 119.253 293.873 125.381 293.881C131.51 293.888 137.061 291.055 141.083 286.467C145.105 281.88 147.069 278.654 147.048 271.652C147.019 264.65 140.624 263.925 135.758 263.925Z" fill="#222831"/>
<path d="M172.813 238.994C166.998 232.09 165.303 229.43 158.649 229.432C151.995 229.435 148.775 231.332 143.997 238.459C140.32 243.943 134.509 240.444 134.504 234.28C134.499 228.116 137.26 225.598 141.617 221.554C145.974 217.511 151.995 215.007 158.649 215C165.303 214.993 171.33 217.485 175.696 221.519C180.063 225.554 182.195 228.39 182.173 234.548C182.141 240.706 176.853 243.793 172.813 238.994Z" fill="#222831"/>
<path d="M101.309 238.994C95.4943 232.09 93.7988 229.43 87.1449 229.432C80.491 229.435 77.2715 231.332 72.4929 238.459C68.8157 243.943 63.0049 240.444 63 234.28C62.995 228.116 65.7563 225.598 70.113 221.554C74.4696 217.511 80.491 215.007 87.1449 215C93.7988 214.993 99.8262 217.485 104.192 221.519C108.559 225.554 110.691 228.39 110.669 234.548C110.637 240.706 105.349 243.793 101.309 238.994Z" fill="#222831"/>
</svg>
